<?xml version="1.0" encoding="UTF-8"?>
<svg version="1.1" xmlns="http://www.w3.org/2000/svg" width="1157" height="1157">
<path d="M0 0 C1.17626953 0.14453613 2.35253906 0.28907227 3.56445312 0.43798828 C67.6163219 8.33515342 128.89250491 27.11620202 187 55 C187.88300781 55.41958984 188.76601563 55.83917969 189.67578125 56.27148438 C203.91288424 63.06199202 217.47256298 70.90136791 231 79 C231.84401367 79.50208984 232.68802734 80.00417969 233.55761719 80.52148438 C264.33535484 98.85556134 293.05081267 120.65537663 319.5234375 144.76953125 C320.84638134 145.96101537 322.17499213 147.14710007 323.5378418 148.29272461 C330.40181891 154.11594761 336.68635026 160.53593538 343.03637695 166.90600586 C345.05764268 168.9326298 347.08419574 170.95385547 349.11132812 172.97460938 C355.28485627 179.14462062 361.39749771 185.2985036 367 192 C367.96052673 193.10695735 368.9227444 194.2124499 369.88671875 195.31640625 C393.11855641 222.1743773 414.42185999 251.10098148 432 282 C432.50418457 282.87736816 433.00836914 283.75473633 433.52783203 284.65869141 C473.19629063 353.81278042 498.28447058 428.93270375 508 508 C508.22647217 509.70639648 508.22647217 509.70639648 508.45751953 511.44726562 C513.9578262 554.04942513 513.64812616 600.44314762 508 643 C507.85546387 644.17626953 507.71092773 645.35253906 507.56201172 646.56445312 C499.66484658 710.6163219 480.88379798 771.89250491 453 830 C452.58041016 830.88300781 452.16082031 831.76601563 451.72851562 832.67578125 C444.93800798 846.91288424 437.09863209 860.47256298 429 874 C428.49791016 874.84401367 427.99582031 875.68802734 427.47851562 876.55761719 C409.14443866 907.33535484 387.34462337 936.05081267 363.23046875 962.5234375 C362.03898463 963.84638134 360.85289993 965.17499213 359.70727539 966.5378418 C353.88405239 973.40181891 347.46406462 979.68635026 341.09399414 986.03637695 C339.0673702 988.05764268 337.04614453 990.08419574 335.02539062 992.11132812 C328.85537938 998.28485627 322.7014964 1004.39749771 316 1010 C314.89304265 1010.96052673 313.7875501 1011.9227444 312.68359375 1012.88671875 C285.8256227 1036.11855641 256.89901852 1057.42185999 226 1075 C225.12263184 1075.50418457 224.24526367 1076.00836914 223.34130859 1076.52783203 C154.18721958 1116.19629063 79.06729625 1141.28447058 0 1151 C-1.70639648 1151.22647217 -1.70639648 1151.22647217 -3.44726562 1151.45751953 C-46.04942513 1156.9578262 -92.44314762 1156.64812616 -135 1151 C-136.17626953 1150.85546387 -137.35253906 1150.71092773 -138.56445312 1150.56201172 C-202.6163219 1142.66484658 -263.89250491 1123.88379798 -322 1096 C-322.88300781 1095.58041016 -323.76601563 1095.16082031 -324.67578125 1094.72851562 C-338.91288424 1087.93800798 -352.47256298 1080.09863209 -366 1072 C-366.84401367 1071.49791016 -367.68802734 1070.99582031 -368.55761719 1070.47851562 C-399.33535484 1052.14443866 -428.05081267 1030.34462337 -454.5234375 1006.23046875 C-455.84638134 1005.03898463 -457.17499213 1003.85289993 -458.5378418 1002.70727539 C-465.40181891 996.88405239 -471.68635026 990.46406462 -478.03637695 984.09399414 C-480.05764268 982.0673702 -482.08419574 980.04614453 -484.11132812 978.02539062 C-490.28485627 971.85537938 -496.39749771 965.7014964 -502 959 C-502.96052673 957.89304265 -503.9227444 956.7875501 -504.88671875 955.68359375 C-528.11855641 928.8256227 -549.42185999 899.89901852 -567 869 C-567.50418457 868.12263184 -568.00836914 867.24526367 -568.52783203 866.34130859 C-608.19629063 797.18721958 -633.28447058 722.06729625 -643 643 C-643.22647217 641.29360352 -643.22647217 641.29360352 -643.45751953 639.55273438 C-648.9578262 596.95057487 -648.64812616 550.55685238 -643 508 C-642.85546387 506.82373047 -642.71092773 505.64746094 -642.56201172 504.43554688 C-634.66484658 440.3836781 -615.88379798 379.10749509 -588 321 C-587.37061523 319.67548828 -587.37061523 319.67548828 -586.72851562 318.32421875 C-579.93800798 304.08711576 -572.09863209 290.52743702 -564 277 C-563.49791016 276.15598633 -562.99582031 275.31197266 -562.47851562 274.44238281 C-544.14443866 243.66464516 -522.34462337 214.94918733 -498.23046875 188.4765625 C-497.03898463 187.15361866 -495.85289993 185.82500787 -494.70727539 184.4621582 C-488.88405239 177.59818109 -482.46406462 171.31364974 -476.09399414 164.96362305 C-474.0673702 162.94235732 -472.04614453 160.91580426 -470.02539062 158.88867188 C-463.85537938 152.71514373 -457.7014964 146.60250229 -451 141 C-449.89304265 140.03947327 -448.7875501 139.0772556 -447.68359375 138.11328125 C-420.8256227 114.88144359 -391.89901852 93.57814001 -361 76 C-360.12263184 75.49581543 -359.24526367 74.99163086 -358.34130859 74.47216797 C-289.18721958 34.80370937 -214.06729625 9.71552942 -135 0 C-133.29360352 -0.22647217 -133.29360352 -0.22647217 -131.55273438 -0.45751953 C-88.95057487 -5.9578262 -42.55685238 -5.64812616 0 0 Z " fill="#000000" transform="translate(646,3)"/>
<path d="M0 0 C1.25364695 -0.00461538 2.50729389 -0.00923075 3.79893014 -0.01398599 C7.26377404 -0.02618398 10.72814354 -0.01362816 14.19295186 0.00312654 C17.96785129 0.01692734 21.74270518 0.00736805 25.51761419 0.00081658 C32.128428 -0.00746118 38.73909751 -0.00093283 45.34989452 0.01536942 C55.17982637 0.03954259 65.00966755 0.04070957 74.8396237 0.03720146 C91.37635681 0.03194953 107.91302592 0.04529752 124.44974041 0.06927109 C140.82154056 0.0929447 157.19331405 0.10833599 173.56513119 0.11268234 C174.58333993 0.1129573 175.60154868 0.11323226 176.65061224 0.11351555 C181.82164668 0.1148689 186.99268115 0.11607443 192.16371564 0.11722305 C228.78363502 0.12562317 265.4035196 0.15256835 302.02341938 0.1904335 C337.59763625 0.22717494 373.17184359 0.25550758 408.74607563 0.27246475 C409.84275994 0.27299086 410.93944424 0.27351696 412.06936141 0.27405901 C423.08278447 0.27933312 434.0962076 0.28443637 445.10963079 0.28941445 C467.54494954 0.29955911 489.98026767 0.31084412 512.41558552 0.32281876 C513.96287177 0.3236425 513.96287177 0.3236425 515.54141633 0.32448288 C547.15677466 0.34137417 578.77212709 0.36309848 610.38747883 0.38959122 C611.73378786 0.39071656 611.73378786 0.39071656 613.10729506 0.39186465 C649.46076824 0.42232492 685.81423677 0.45790119 722.16770649 0.49219131 C722.16770649 49.99219131 722.16770649 99.49219131 722.16770649 150.49219131 C595.44770649 150.82219131 468.72770649 151.15219131 338.16770649 151.49219131 C338.16770649 187.13219131 338.16770649 222.77219131 338.16770649 259.49219131 C339.98460512 261.30908995 342.81318965 260.62525789 345.25658989 260.63085651 C346.22575878 260.63511984 346.22575878 260.63511984 347.21450683 260.6394693 C349.40640316 260.64787318 351.59824702 260.64908892 353.79015827 260.6504097 C355.36669636 260.65497119 356.94323323 260.65997059 358.51976866 260.66537327 C362.87290784 260.67901091 367.22603918 260.68638892 371.57919419 260.69279993 C376.2656647 260.70077928 380.95211875 260.71448547 385.63857746 260.72751236 C393.76513944 260.74931022 401.89170307 260.76744255 410.01827908 260.78311729 C421.76808661 260.80578587 433.51787594 260.83393281 445.26766806 260.86343657 C464.32882194 260.91114952 483.38998324 260.95440363 502.45115376 260.99487686 C520.97231849 261.03421298 539.49347662 261.07563466 558.01463032 261.11987686 C559.1553999 261.12260113 560.29616949 261.12532541 561.47150785 261.12813223 C567.19415252 261.1418114 572.91679709 261.15553173 578.63944161 261.16927254 C626.1488503 261.28329546 673.65827219 261.38927467 721.16770649 261.49219131 C721.16770649 300.43219131 721.16770649 339.37219131 721.16770649 379.49219131 C594.77770649 379.82219131 468.38770649 380.15219131 338.16770649 380.49219131 C337.83770649 534.93219131 337.50770649 689.37219131 337.16770649 848.49219131 C297.89770649 848.49219131 258.62770649 848.49219131 218.16770649 848.49219131 C218.16770649 694.05219131 218.16770649 539.61219131 218.16770649 380.49219131 C180.21770649 380.49219131 142.26770649 380.49219131 103.16770649 380.49219131 C103.16770649 534.93219131 103.16770649 689.37219131 103.16770649 848.49219131 C53.66770649 848.49219131 4.16770649 848.49219131 -46.83229351 848.49219131 C-46.91281664 754.06086225 -46.91281664 754.06086225 -46.93489361 724.84527969 C-46.93568294 723.80332389 -46.93647228 722.76136808 -46.93728553 721.68783786 C-46.96378229 686.61641942 -46.98478652 651.54499993 -47.00166607 616.47357559 C-47.0022183 615.32911566 -47.00277053 614.18465572 -47.00333949 613.00551518 C-47.01531083 588.13394033 -47.0263916 563.26236517 -47.03655483 538.39078952 C-47.04154422 526.19395854 -47.04673043 513.99712764 -47.05202007 501.80029678 C-47.05254311 500.58655878 -47.05306615 499.37282078 -47.05360503 498.12230284 C-47.07065358 458.77419684 -47.10070118 419.4261138 -47.13748239 380.07802171 C-47.17520799 339.64625653 -47.19983418 299.21450406 -47.20795347 258.78272158 C-47.20910611 253.07337762 -47.21040866 247.3640337 -47.21180248 241.65468979 C-47.21207217 240.53099752 -47.21234187 239.40730526 -47.21261973 238.24956171 C-47.21734851 220.15364114 -47.23590591 202.05775985 -47.25962165 183.9618553 C-47.28316332 165.7739513 -47.29216725 147.58608628 -47.28629902 129.39816758 C-47.28325433 118.58942909 -47.29138885 107.78083313 -47.31548368 96.97212034 C-47.33048057 89.75201078 -47.33095003 82.53199459 -47.31962076 75.31187859 C-47.3135808 71.19784029 -47.31384415 67.08407159 -47.33182624 62.97006217 C-47.34808002 59.22294726 -47.34570924 55.47631092 -47.32885341 51.72920289 C-47.32467535 49.75568229 -47.34003494 47.78214933 -47.35632741 45.80869156 C-47.27542666 35.0779098 -45.5030819 25.35007211 -37.83229351 17.49219131 C-37.08979351 16.52281631 -36.34729351 15.55344131 -35.58229351 14.55469131 C-26.04667336 3.27186126 -14.3708962 -0.13127931 0 0 Z " fill="#FEFEFE" transform="translate(235.832293510437,144.50780868530273)"/>
<path d="M0 0 C33 0 66 0 100 0 C100 35.97 100 71.94 100 109 C62.38 109 24.76 109 -14 109 C-14.2475 84.930625 -14.2475 84.930625 -14.5 60.375 C-14.57283203 55.31333496 -14.64566406 50.25166992 -14.72070312 45.03662109 C-14.75683594 38.84301758 -14.75683594 38.84301758 -14.7635498 35.94107056 C-14.77581378 33.91952421 -14.80390932 31.89803548 -14.84460449 29.87686157 C-14.90326648 26.80929395 -14.91124643 23.74529143 -14.90820312 20.67724609 C-14.93698799 19.78073523 -14.96577286 18.88422436 -14.99542999 17.96054649 C-14.94616813 14.24522371 -14.89407741 11.93952995 -12.26341248 9.17512894 C-10.1307373 7.58267212 -10.1307373 7.58267212 -8.01103973 6.26525307 C-5.94950897 5.08483547 -5.94950897 5.08483547 -4.42932892 3.33858299 C-3 2 -3 2 0 2 C0 1.34 0 0.68 0 0 Z " fill="#010101" transform="translate(354,296)"/>
<path d="M0 0 C1.25809275 -0.00461538 2.5161855 -0.00923075 3.81240228 -0.01398599 C7.29903718 -0.02621631 10.78520269 -0.01360084 14.27180247 0.00312654 C18.06684924 0.01690011 21.86184986 0.00737319 25.65690607 0.00081658 C32.3061945 -0.0074696 38.95533963 -0.00091839 45.6046114 0.01536942 C55.49178686 0.03952133 65.37887207 0.04071154 75.26607166 0.03720146 C91.89830519 0.03194694 108.53047514 0.04530738 125.16269016 0.06927109 C141.63104028 0.09293789 158.09936391 0.10833461 174.5677309 0.11268234 C176.10356832 0.11309478 176.10356832 0.11309478 177.67043276 0.11351555 C182.8702453 0.11486888 188.07005786 0.11607442 193.26987045 0.11722305 C230.10164867 0.12562505 266.93339229 0.15257547 303.76515102 0.1904335 C339.54705019 0.22716997 375.3289399 0.25550505 411.11085415 0.27246475 C412.76523952 0.27325391 412.76523952 0.27325391 414.45304683 0.27405901 C425.52904272 0.27933308 436.60503869 0.28443634 447.68103472 0.28941445 C470.24418447 0.29955934 492.8073336 0.31084435 515.37048244 0.32281876 C516.9266135 0.3236425 516.9266135 0.3236425 518.51418155 0.32448288 C587.79324631 0.36128652 657.07229188 0.42466744 726.35133266 0.49219131 C726.35133266 0.82219131 726.35133266 1.15219131 726.35133266 1.49219131 C725.71600093 1.49227954 725.08066919 1.49236776 724.42608498 1.49245865 C655.25990604 1.50223991 586.09372961 1.51820085 516.92756557 1.56648636 C515.8944749 1.56720581 514.86138423 1.56792526 513.79698778 1.56866652 C491.34543438 1.58433904 468.89388194 1.60112134 446.44233023 1.61904694 C435.43218016 1.62783082 424.4220299 1.63636946 413.41187954 1.64477921 C412.31623411 1.64562025 411.22058868 1.6464613 410.09174188 1.64732783 C374.57528849 1.67447628 339.05885254 1.68542853 303.54238958 1.68798656 C267.04624314 1.69070066 230.5501408 1.70974491 194.05401486 1.74935246 C188.8998276 1.75493844 183.74564017 1.76033764 178.5914526 1.76562309 C177.57702922 1.76666913 176.56260585 1.76771516 175.51744237 1.7687929 C159.1844907 1.78515438 142.85158314 1.78428852 126.5186268 1.77698849 C110.10061989 1.77001779 93.68270471 1.78117701 77.26472244 1.81085422 C67.50909128 1.82793724 57.75368641 1.83110757 47.99805342 1.81436552 C41.47988417 1.80454952 34.96190009 1.81286423 28.44376443 1.8358518 C24.73061308 1.84843002 21.01791466 1.8531909 17.30477235 1.83582058 C13.29982141 1.8172695 9.29597937 1.83750047 5.29105663 1.8613348 C3.57195855 1.84403872 3.57195855 1.84403872 1.81813121 1.82639322 C-11.42211977 1.98184971 -21.32595248 7.44039296 -30.64866734 16.49219131 C-32.24569811 18.45010956 -33.40749566 20.27966789 -34.64866734 22.49219131 C-35.30866734 23.15219131 -35.96866734 23.81219131 -36.64866734 24.49219131 C-40.56721076 33.13761169 -41.22204089 41.29301653 -41.15647602 50.66568756 C-41.16115268 52.06619315 -41.16757902 53.46669378 -41.1755783 54.86718434 C-41.19244776 58.69990713 -41.18464781 62.53223468 -41.17267131 66.36496103 C-41.1640593 70.54044519 -41.17871681 74.71585981 -41.19038033 78.89132762 C-41.20762266 86.20387283 -41.21011115 93.51630671 -41.20286465 100.82886696 C-41.19215666 111.7022958 -41.20436663 122.57561507 -41.22123637 133.4490318 C-41.24896857 151.74110547 -41.25816838 170.0331445 -41.25678349 188.32523727 C-41.25547303 206.43506895 -41.26241342 224.54486655 -41.28035831 242.65468979 C-41.2814697 243.78096485 -41.28258109 244.9072399 -41.28372616 246.0676445 C-41.28941329 251.78749364 -41.29524769 257.50734261 -41.30113879 263.22719154 C-41.34259378 303.73430401 -41.36557189 344.24140798 -41.37767124 384.74853897 C-41.38946745 424.09913474 -41.40964088 463.44971165 -41.4411478 502.80029678 C-41.44211576 504.01338593 -41.44308371 505.22647507 -41.44408099 506.47632449 C-41.45381086 518.65873332 -41.46371095 530.841142 -41.47373575 543.02355059 C-41.49415332 567.84022483 -41.51343477 592.65689992 -41.53202915 617.47357559 C-41.53288548 618.61459061 -41.53374181 619.75560562 -41.53462409 620.93119685 C-41.56081024 655.90255564 -41.58218124 690.87391505 -41.59880161 725.84527969 C-41.59927533 726.83809951 -41.59974905 727.83091933 -41.60023712 728.8538246 C-41.61935138 769.06661227 -41.63336868 809.27940205 -41.64866734 849.49219131 C7.85133266 849.49219131 57.35133266 849.49219131 108.35133266 849.49219131 C108.35133266 695.05219131 108.35133266 540.61219131 108.35133266 381.49219131 C146.30133266 381.49219131 184.25133266 381.49219131 223.35133266 381.49219131 C223.35133266 535.93219131 223.35133266 690.37219131 223.35133266 849.49219131 C262.62133266 849.49219131 301.89133266 849.49219131 342.35133266 849.49219131 C342.34347744 828.23438248 342.34347744 828.23438248 342.33546352 806.54712296 C342.32474087 776.25858469 342.31532393 745.97004662 342.30898952 715.68150711 C342.30885147 715.021888 342.30871341 714.36226889 342.30857117 713.68266131 C342.30557861 699.3490923 342.30280838 685.01552325 342.30026734 670.68195415 C342.29901994 663.65328645 342.2977234 656.62461876 342.29640102 649.59595108 C342.29627026 648.89649546 342.29613951 648.19703984 342.29600478 647.47638859 C342.29173962 624.78453023 342.28422547 602.09267434 342.27503544 579.40081748 C342.26534575 555.43177936 342.25933906 531.46274286 342.25724417 507.49370283 C342.2558686 493.12627927 342.25151617 478.75886283 342.2434162 464.39144146 C342.23815077 454.55370364 342.2365279 444.71596953 342.23783129 434.8782304 C342.23847499 429.19317857 342.23745357 423.50813923 342.23212719 417.8230896 C342.22729478 412.62765992 342.22699296 407.43225124 342.23043377 402.23682063 C342.23085962 400.34852419 342.22956256 398.46022649 342.22644948 396.57193256 C342.22248811 394.02265151 342.22456763 391.47344821 342.22828484 388.92416859 C342.22565782 388.17596193 342.22303081 387.42775528 342.22032419 386.6568757 C342.23718687 381.60633711 342.23718687 381.60633711 343.35133266 380.49219131 C345.38422549 380.3943302 347.42058662 380.36847902 349.45583344 380.36914349 C350.1036344 380.36798964 350.75143537 380.3668358 351.41886666 380.36564699 C353.61651891 380.36297402 355.8140997 380.36750802 358.01174831 380.3719368 C359.59241008 380.37150123 361.17307179 380.3706266 362.7537331 380.36934763 C367.11828565 380.36709975 371.4828139 380.37112794 375.84736335 380.37612569 C380.54609452 380.38042582 385.24482421 380.37898408 389.94355679 380.37822342 C398.09140824 380.3776979 406.23925172 380.38084756 414.38710117 380.38646126 C426.16766705 380.39457256 437.94822906 380.3971911 449.72879743 380.39844925 C468.83987582 380.40064035 487.95094995 380.40730202 507.06202602 380.41675186 C525.63168726 380.42592447 544.20134735 380.43300604 562.7710104 380.43725967 C563.91476698 380.4375224 565.05852356 380.43778512 566.23693944 380.43805581 C571.97456809 380.4393608 577.71219674 380.44062452 583.44982541 380.44186771 C631.08366494 380.45224214 678.7174966 380.47068142 726.35133266 380.49219131 C726.35133266 341.55219131 726.35133266 302.61219131 726.35133266 262.49219131 C709.00917202 262.50790176 709.00917202 262.50790176 691.3166647 262.5239296 C654.36439194 262.55599972 617.41211913 262.57826341 580.45983607 262.59432197 C574.72428672 262.59682352 568.98873742 262.59941215 563.25318813 262.6020546 C562.11129791 262.60257922 560.96940769 262.60310384 559.79291473 262.60364436 C541.28059405 262.6123574 522.76828574 262.6281323 504.2559724 262.64649691 C485.27401521 262.66517097 466.29206452 262.67630274 447.31009853 262.6803683 C435.58828618 262.68311855 423.86650878 262.69181859 412.14470719 262.70802425 C404.11695926 262.71856039 396.08922952 262.72179963 388.06147517 262.71919407 C383.42334311 262.7179075 378.78527229 262.71994016 374.14715099 262.73060226 C369.90707791 262.74027868 365.66710772 262.74086308 361.42703007 262.7339891 C359.88729871 262.73313855 358.34756113 262.73572301 356.80784215 262.74195768 C354.7261875 262.74990149 352.64491183 262.74570864 350.56326389 262.73828697 C348.82376506 262.73942613 348.82376506 262.73942613 347.04912484 262.74058831 C344.35133266 262.49219131 344.35133266 262.49219131 342.35133266 260.49219131 C342.1024437 258.56221294 342.1024437 258.56221294 342.10409451 256.15831375 C342.09990002 255.24828094 342.09570553 254.33824814 342.09138393 253.40063858 C342.09700344 252.39952042 342.10262295 251.39840225 342.10841274 250.36694717 C342.1065144 249.31487579 342.10461605 248.26280441 342.10266018 247.17885208 C342.09894402 243.68817152 342.10966793 240.19769726 342.12086391 236.70703506 C342.12205526 234.29090271 342.12250897 231.87476988 342.12225246 229.45863724 C342.12381874 224.39028406 342.13211997 219.32200137 342.14552212 214.25366592 C342.16252121 207.74077551 342.16633629 201.2279626 342.16557693 194.7150526 C342.1658482 189.72497689 342.17132224 184.73491829 342.17857838 179.74484825 C342.18177151 177.34255033 342.18373395 174.94025045 342.18447208 172.53795052 C342.18662833 169.18794669 342.19535672 165.83802686 342.20606899 162.48804092 C342.20538921 160.98332733 342.20538921 160.98332733 342.2046957 159.44821548 C342.20896069 158.5410025 342.21322567 157.63378952 342.2176199 156.69908524 C342.21929574 155.90617553 342.22097158 155.11326582 342.22269821 154.29632854 C342.35133266 152.49219131 342.35133266 152.49219131 343.35133266 151.49219131 C345.38422549 151.3943302 347.42058662 151.36847902 349.45583344 151.36914349 C350.1036344 151.36798964 350.75143537 151.3668358 351.41886666 151.36564699 C353.61651891 151.36297402 355.8140997 151.36750802 358.01174831 151.3719368 C359.59241008 151.37150123 361.17307179 151.3706266 362.7537331 151.36934763 C367.11828565 151.36709975 371.4828139 151.37112794 375.84736335 151.37612569 C380.54609452 151.38042582 385.24482421 151.37898408 389.94355679 151.37822342 C398.09140824 151.3776979 406.23925172 151.38084756 414.38710117 151.38646126 C426.16766705 151.39457256 437.94822906 151.3971911 449.72879743 151.39844925 C468.83987582 151.40064035 487.95094995 151.40730202 507.06202602 151.41675186 C525.63168726 151.42592447 544.20134735 151.43300604 562.7710104 151.43725967 C563.91476698 151.4375224 565.05852356 151.43778512 566.23693944 151.43805581 C571.97456809 151.4393608 577.71219674 151.44062452 583.44982541 151.44186771 C631.0836641 151.45224214 678.71749818 151.46986203 726.35133266 151.49219131 C726.35133266 151.82219131 726.35133266 152.15219131 726.35133266 152.49219131 C600.62133266 152.82219131 474.89133266 153.15219131 345.35133266 153.49219131 C345.02133266 188.80219131 344.69133266 224.11219131 344.35133266 260.49219131 C355.94830288 260.4869545 367.54527309 260.48171768 379.49366665 260.47632217 C416.55446919 260.46028898 453.61527175 260.44915607 490.67607686 260.44112599 C496.42793622 260.4398752 502.17979558 260.43858089 507.93165493 260.43725967 C509.07679808 260.43699736 510.22194122 260.43673505 511.40178568 260.43646479 C529.96974247 260.43210762 548.53769618 260.42421981 567.10565113 260.41503852 C586.14297468 260.4057033 605.1802966 260.40013599 624.21762234 260.39810282 C635.97474204 260.39672732 647.73185303 260.39237525 659.48897005 260.38427485 C667.53960145 260.37900902 675.59022832 260.37738665 683.64086132 260.37868994 C688.29302833 260.37933357 692.94518007 260.37831293 697.5973444 260.37298584 C701.84905989 260.36815254 706.10074973 260.3678522 710.35246635 260.37129242 C711.89756193 260.37171818 713.44265904 260.37042186 714.98775154 260.36730813 C717.07414387 260.36334516 719.16044129 260.36542727 721.24683189 260.36914349 C722.40991527 260.36876377 723.57299864 260.36838405 724.77132696 260.36799282 C727.35133266 260.49219131 727.35133266 260.49219131 728.35133266 261.49219131 C728.44934469 263.03115327 728.47765111 264.57460807 728.47831631 266.11668777 C728.48113613 267.11645645 728.48395596 268.11622513 728.48686123 269.14628983 C728.484837 270.25229034 728.48281277 271.35829086 728.4807272 272.49780655 C728.48247952 273.65541489 728.48423183 274.81302322 728.48603725 276.0057106 C728.49045897 279.85408375 728.48751646 283.7024114 728.48414516 287.55078506 C728.48481816 290.21257459 728.48578645 292.87436271 728.48704433 295.53615189 C728.48886601 301.12412387 728.48646005 306.71208266 728.48170376 312.30005264 C728.4762638 318.76601229 728.47802187 325.2319404 728.48353016 331.69789928 C728.48806454 337.2418566 728.48871017 342.78580442 728.48609149 348.329763 C728.48453017 351.64417538 728.48472191 354.95856964 728.48762798 358.27298164 C728.49015599 361.9677369 728.48631164 365.66243088 728.4807272 369.35718155 C728.48275143 370.46115784 728.48477566 371.56513412 728.48686123 372.70256424 C728.4840414 373.70515274 728.48122158 374.70774124 728.47831631 375.74071121 C728.47793928 376.61511573 728.47756226 377.48952024 728.47717381 378.39042187 C728.35133266 380.49219131 728.35133266 380.49219131 727.35133266 382.49219131 C724.03092356 383.59899435 721.56186045 383.62277114 718.06320572 383.63085651 C717.41985056 383.63369873 716.7764954 383.63654095 716.11364463 383.6394693 C713.94317146 383.64783627 711.77275153 383.64908607 709.60226345 383.6504097 C708.03637365 383.65497369 706.47048508 383.65997347 704.90459794 383.66537327 C700.59018218 383.67898236 696.27577432 383.68638074 691.96134269 383.69279993 C687.31308079 383.70079171 682.6648354 383.71449368 678.01658535 383.72751236 C669.95935806 383.74929246 661.90212911 383.76743134 653.84488773 383.78311729 C642.19537942 383.80580196 630.54588938 383.83394673 618.89639654 383.86343657 C599.99718734 383.91112971 581.09797068 383.95438922 562.19874477 383.99487686 C543.8367597 384.03422303 525.47478126 384.07564715 507.11280727 384.11987686 C505.98152412 384.12260113 504.85024097 384.12532541 503.68467651 384.12813223 C498.00952532 384.14181157 492.33437424 384.15553187 486.6592232 384.16927254 C439.55660684 384.28326436 392.45397615 384.39006772 345.35133266 384.49219131 C345.34959642 385.47785345 345.34786017 386.4635156 345.3460713 387.47904629 C345.2431942 445.83206339 345.13506985 504.18506919 345.02021572 562.53806394 C345.00644193 569.536689 344.99271718 576.53531415 344.97901821 583.53393936 C344.97765413 584.2304053 344.97629004 584.92687123 344.97488462 585.6444422 C344.93065383 608.23929111 344.88966504 630.8341445 344.85034854 653.42900245 C344.80880159 677.29559153 344.76357954 701.16217097 344.71445411 725.02874571 C344.68512717 739.33474342 344.65877068 753.64074038 344.63615369 767.94675029 C344.62038702 777.74244583 344.60098561 787.53812986 344.57866425 797.33381265 C344.56587442 802.99455583 344.55474612 808.65529008 344.54791355 814.31604385 C344.54163426 819.4892776 344.53083409 824.66248064 344.51629936 829.8356976 C344.51183962 831.71591497 344.50909907 833.59613729 344.50817067 835.47635972 C344.50667638 838.01475892 344.49915423 840.55306745 344.48999786 843.09144878 C344.49102053 843.83644675 344.4920432 844.58144471 344.49309686 845.34901837 C344.46547846 850.37804552 344.46547846 850.37804552 343.35133266 851.49219131 C341.79745103 851.59023996 340.23911502 851.61850993 338.68214321 851.61917496 C337.67251522 851.62199478 336.66288723 851.62481461 335.62266445 851.62771988 C334.50574215 851.62569565 333.38881985 851.62367142 332.23805141 851.62158585 C331.06908321 851.62333817 329.90011501 851.62509048 328.69572353 851.6268959 C325.48092827 851.63055396 322.26617389 851.62968107 319.0513792 851.62651682 C315.69392464 851.62399273 312.33647288 851.62633089 308.97901821 851.62790298 C303.33977165 851.62972454 297.70053818 851.62731875 292.0612936 851.62256241 C285.53283007 851.61711981 279.00439776 851.61888248 272.47593498 851.62438881 C266.88018908 851.62892035 261.28445259 851.62957029 255.68870544 851.62695014 C252.34246782 851.62538759 248.99624489 851.62519301 245.6500082 851.62848663 C241.92152162 851.63101146 238.19309594 851.62717496 234.46461391 851.62158585 C232.78923046 851.62462219 232.78923046 851.62462219 231.08000088 851.62771988 C230.07037289 851.62490005 229.0607449 851.62208023 228.02052212 851.61917496 C227.13782146 851.61879793 226.25512081 851.61842091 225.34567165 851.61803246 C223.35133266 851.49219131 223.35133266 851.49219131 222.35133266 850.49219131 C222.24742335 848.01112575 222.20926798 845.55763607 222.21266747 843.07583141 C222.20982525 842.28620706 222.20698303 841.4965827 222.20405468 840.68303034 C222.19564748 838.00294694 222.19443479 835.32290643 222.19311428 832.64281082 C222.18855302 830.71566494 222.18355365 828.78852005 222.17815071 826.86137635 C222.1645105 821.5391029 222.15713432 816.21683588 222.15072405 810.89454949 C222.14274582 805.16512616 222.12903925 799.43571631 222.11601162 793.70630264 C222.09421216 783.77086113 222.07608042 773.83541828 222.06040668 763.89996529 C222.03773956 749.53478715 222.00959242 735.16962391 221.98008741 720.80445839 C221.93237268 697.50058749 221.88911051 674.19671061 221.84864712 650.89282608 C221.80931914 628.24894105 221.76790195 605.60506142 221.72364712 582.96118546 C221.72228459 582.26359287 221.72092206 581.56600029 221.71951824 580.84726853 C221.70583324 573.84196031 221.69210567 566.83665217 221.6783469 559.8313441 C221.56290466 501.0516375 221.45547901 442.27191927 221.35133266 383.49219131 C184.72133266 383.16219131 148.09133266 382.83219131 110.35133266 382.49219131 C110.02133266 536.93219131 109.69133266 691.37219131 109.35133266 850.49219131 C58.86133266 850.49219131 8.37133266 850.49219131 -43.64866734 850.49219131 C-45.36693232 848.77392633 -44.77512424 846.509876 -44.77631783 844.16421837 C-44.7793338 842.99865269 -44.78234977 841.83308701 -44.78545713 840.63220116 C-44.78368766 839.33278212 -44.78191819 838.03336307 -44.7800951 836.69456768 C-44.781743 835.30930966 -44.78382846 833.92405209 -44.7863152 832.53879532 C-44.79191417 828.6971773 -44.79120358 824.85558142 -44.78953761 821.01396061 C-44.78880998 816.84772842 -44.79382127 812.68150265 -44.79811263 808.51527315 C-44.80571434 800.23623904 -44.80788679 791.95721137 -44.80844169 783.67817413 C-44.8093532 773.76796973 -44.81601445 763.85777133 -44.82278851 753.9475695 C-44.83887348 729.98936901 -44.84475474 706.03116914 -44.84953726 682.07296422 C-44.85187084 670.7448674 -44.85547324 659.4167711 -44.85923264 648.08867468 C-44.87207072 609.33193244 -44.8827894 570.57519048 -44.88623524 531.81844616 C-44.88645687 529.38398118 -44.88667866 526.9495162 -44.88690059 524.51505122 C-44.88712123 522.07460583 -44.88734171 519.63416043 -44.88756204 517.19371504 C-44.8880046 512.29752028 -44.88845171 507.40132552 -44.88890171 502.50513077 C-44.8890111 501.29115262 -44.88912049 500.07717447 -44.8892332 498.8264091 C-44.89286438 459.45703083 -44.90878544 420.08767097 -44.93209207 380.71829975 C-44.95667241 339.12153931 -44.97040726 297.5247894 -44.97160316 255.92802149 C-44.97177462 251.36409509 -44.97199005 246.80016869 -44.97223759 242.23624229 C-44.97229336 241.11242684 -44.97234912 239.98861138 -44.97240658 238.83074091 C-44.97355865 220.72200752 -44.98459396 202.61329298 -44.99912464 184.50456596 C-45.01347102 166.31125355 -45.01673718 148.11796538 -45.00868466 129.92464887 C-45.00421948 119.10842549 -45.0081244 108.29228014 -45.02392317 97.47606696 C-45.03364523 90.25610188 -45.03252155 83.03619171 -45.02248694 75.81622717 C-45.01707477 71.69904751 -45.01644924 67.58201811 -45.02899566 63.46485066 C-45.04031376 59.71960684 -45.03783335 55.97463591 -45.02432859 52.22940166 C-45.02074247 50.24717077 -45.03188579 48.26492995 -45.04361987 46.28273055 C-45.00395786 39.57752393 -44.41977028 34.60434212 -41.64866734 28.49219131 C-41.29102519 27.16517173 -40.95145711 25.8327909 -40.64866734 24.49219131 C-39.98866734 24.49219131 -39.32866734 24.49219131 -38.64866734 24.49219131 C-38.31866734 23.17219131 -37.98866734 21.85219131 -37.64866734 20.49219131 C-36.98866734 20.49219131 -36.32866734 20.49219131 -35.64866734 20.49219131 C-35.31866734 19.17219131 -34.98866734 17.85219131 -34.64866734 16.49219131 C-33.98866734 16.49219131 -33.32866734 16.49219131 -32.64866734 16.49219131 C-32.4024564 15.91469131 -32.15624546 15.33719131 -31.90257359 14.74219131 C-30.44303337 12.12320327 -28.80994755 10.50026093 -26.58616734 8.49219131 C-25.87331577 7.83219131 -25.16046421 7.17219131 -24.42601109 6.49219131 C-16.55849404 0.82669381 -9.55258974 -0.08638716 0 0 Z " fill="#343434" transform="translate(230.64866733551025,143.50780868530273)"/>
<path d="M0 0 C1.25018541 -0.00346153 2.50037083 -0.00692307 3.78844064 -0.01048949 C7.25748756 -0.01967333 10.72626963 -0.01019095 14.19529676 0.00234491 C17.96961372 0.01266561 21.74390435 0.00553168 25.51822662 0.00061244 C32.13265508 -0.00560512 38.74700254 -0.00068374 45.36142159 0.01152706 C55.1968018 0.02963359 65.03213095 0.03053434 74.8675248 0.0279011 C91.41226324 0.0239593 107.95696574 0.03398397 124.50169373 0.05195332 C140.88434527 0.06970105 157.26698185 0.08125048 173.64964294 0.08451176 C175.17726539 0.08482109 175.17726539 0.08482109 176.7357489 0.08513666 C181.90771023 0.08615165 187.07967157 0.08705581 192.25163293 0.08791729 C228.88984698 0.09421944 265.52804147 0.11443408 302.16624451 0.14282513 C337.76097001 0.17037575 373.35569016 0.1916279 408.95042419 0.20434856 C410.59604252 0.20494043 410.59604252 0.20494043 412.27490567 0.20554426 C423.29216761 0.2094998 434.3094296 0.21332724 445.32669162 0.21706083 C467.77036123 0.22466959 490.21403049 0.23313334 512.65769958 0.24211407 C514.20560364 0.24273187 514.20560364 0.24273187 515.78477849 0.24336216 C547.41641208 0.25603207 579.04804236 0.27232611 610.67967224 0.29219341 C611.57777427 0.29275609 612.4758763 0.29331876 613.40119354 0.29389848 C649.7797472 0.31674509 686.15829826 0.34342634 722.53684998 0.36914349 C722.53684998 49.86914349 722.53684998 99.36914349 722.53684998 150.36914349 C595.81684998 150.69914349 469.09684998 151.02914349 338.53684998 151.36914349 C338.53684998 187.00914349 338.53684998 222.64914349 338.53684998 259.36914349 C340.35374861 261.18604212 343.18233314 260.50221006 345.62573338 260.50780869 C346.59490226 260.51207201 346.59490226 260.51207201 347.58365032 260.51642147 C349.77554664 260.52482535 351.96739051 260.5260411 354.15930176 260.52736187 C355.73583984 260.53192336 357.31237671 260.53692276 358.88891214 260.54232544 C363.24205133 260.55596308 367.59518266 260.56334109 371.94833767 260.5697521 C376.63480819 260.57773145 381.32126224 260.59143764 386.00772095 260.60446453 C394.13428293 260.62626239 402.26084655 260.64439472 410.38742256 260.66006947 C422.1372301 260.68273804 433.88701942 260.71088498 445.63681155 260.74038874 C464.69796542 260.78810169 483.75912672 260.8313558 502.82029724 260.87182903 C521.34146198 260.91116515 539.86262011 260.95258683 558.3837738 260.99682903 C559.52454339 260.9995533 560.66531298 261.00227758 561.84065134 261.0050844 C567.56329601 261.01876357 573.28594058 261.0324839 579.0085851 261.04622471 C626.51799378 261.16024763 674.02741568 261.26622684 721.53684998 261.36914349 C721.53684998 300.30914349 721.53684998 339.24914349 721.53684998 379.36914349 C595.14684998 379.69914349 468.75684998 380.02914349 338.53684998 380.36914349 C338.20684998 534.80914349 337.87684998 689.24914349 337.53684998 848.36914349 C298.26684998 848.36914349 258.99684998 848.36914349 218.53684998 848.36914349 C218.53684998 693.92914349 218.53684998 539.48914349 218.53684998 380.36914349 C218.86684998 380.36914349 219.19684998 380.36914349 219.53684998 380.36914349 C219.53684998 534.14914349 219.53684998 687.92914349 219.53684998 846.36914349 C258.14684998 846.36914349 296.75684998 846.36914349 336.53684998 846.36914349 C336.53161316 832.2275639 336.52637634 818.08598431 336.52098083 803.515872 C336.50494798 758.32427832 336.49381334 713.13268432 336.48578465 667.94108859 C336.48453725 660.92744217 336.48324071 653.91379575 336.48191833 646.90014935 C336.48178758 646.20218857 336.48165682 645.50422779 336.4815221 644.78511668 C336.47725693 622.14176012 336.46974278 599.49840605 336.46055275 576.855051 C336.45086305 552.9372414 336.44485637 529.01943357 336.44276148 505.10162205 C336.44138591 490.76490794 336.43703348 476.42820098 336.42893351 462.09148907 C336.42366808 452.27477603 336.42204521 442.45806671 336.4233486 432.64135236 C336.4239923 426.96845212 336.42297089 421.2955644 336.4176445 415.62266636 C336.41281208 410.4383392 336.41251028 405.25403309 336.41595108 400.069705 C336.41637693 398.18544622 336.41507988 396.30118617 336.41196679 394.41692991 C336.40800541 391.87309462 336.41008495 389.32933725 336.41380215 386.78550339 C336.41117513 386.03890108 336.40854812 385.29229877 336.4058415 384.52307215 C336.42270418 379.48328928 336.42270418 379.48328928 337.53684998 378.36914349 C339.5697428 378.27128237 341.60610393 378.2454312 343.64135075 378.24609566 C344.28915171 378.24494181 344.93695268 378.24378797 345.60438398 378.24259916 C347.80203622 378.23992619 349.99961701 378.24446019 352.19726562 378.24888897 C353.7779274 378.24845341 355.3585891 378.24757877 356.93925041 378.2462998 C361.30380296 378.24405192 365.66833121 378.24808011 370.03288066 378.25307786 C374.73161183 378.25737799 379.43034152 378.25593625 384.1290741 378.25517559 C392.27692555 378.25465008 400.42476903 378.25779973 408.57261848 378.26341343 C420.35318436 378.27152473 432.13374637 378.27414327 443.91431474 378.27540142 C463.02539313 378.27759252 482.13646726 378.28425419 501.24754333 378.29370403 C519.81720458 378.30287664 538.38686466 378.30995821 556.95652771 378.31421185 C558.10028429 378.31447457 559.24404088 378.31473729 560.42245675 378.31500798 C566.1600854 378.31631297 571.89771405 378.31757669 577.63534272 378.31881988 C625.26918225 378.32919431 672.90301391 378.34763359 720.53684998 378.36914349 C720.53684998 340.08914349 720.53684998 301.80914349 720.53684998 262.36914349 C708.93987976 262.3743803 697.34290955 262.37961712 685.39451599 262.38501263 C648.33371345 262.40104582 611.27291089 262.41217873 574.21210578 262.42020882 C568.46024642 262.4214596 562.70838706 262.42275391 556.95652771 262.42407513 C555.81138456 262.42433744 554.66624142 262.42459975 553.48639696 262.42487001 C534.91844017 262.42922719 516.35048647 262.43711499 497.78253151 262.44629628 C478.74520796 262.4556315 459.70788604 262.46119881 440.6705603 262.46323198 C428.9134406 262.46460748 417.15632961 262.46895955 405.39921259 262.47705995 C397.34858119 262.48232578 389.29795432 262.48394816 381.24732132 262.48264486 C376.59515431 262.48200123 371.94300257 262.48302187 367.29083824 262.48834896 C363.03912275 262.49318226 358.78743291 262.4934826 354.53571629 262.49004238 C352.99062071 262.48961662 351.4455236 262.49091294 349.9004311 262.49402667 C347.81403877 262.49798964 345.72774135 262.49590753 343.64135075 262.49219131 C341.89672569 262.4927609 341.89672569 262.4927609 340.11685568 262.49334198 C337.53684998 262.36914349 337.53684998 262.36914349 336.53684998 261.36914349 C336.43911058 259.92933135 336.41053285 258.48475445 336.40986633 257.04162884 C336.40704651 256.10772823 336.40422668 255.17382763 336.40132141 254.21162701 C336.40435776 252.66247852 336.40435776 252.66247852 336.40745544 251.08203411 C336.40482697 249.46025501 336.40482697 249.46025501 336.40214539 247.8057127 C336.39772439 244.2122569 336.40066573 240.61884984 336.40403748 237.02539349 C336.40336451 234.5405708 336.40239454 232.05574817 336.40113831 229.57092571 C336.3994714 223.68600974 336.4029842 217.80111161 336.40828907 211.91619825 C336.41204389 207.2154475 336.41071631 202.51471768 336.40647888 197.8139677 C336.40069961 191.34840059 336.39976545 184.88285378 336.40303421 178.41728497 C336.40370373 175.9452085 336.40287421 173.47313118 336.40055466 171.00105572 C336.39802959 167.55276451 336.40186668 164.10453914 336.40745544 160.65625286 C336.40543121 159.62348721 336.40340698 158.59072155 336.40132141 157.52665997 C336.40555115 156.12580906 336.40555115 156.12580906 336.40986633 154.69665813 C336.41024336 153.88032658 336.41062038 153.06399502 336.41100883 152.22292614 C336.53684998 150.36914349 336.53684998 150.36914349 337.53684998 149.36914349 C339.57495319 149.27127478 341.61651656 149.24543123 343.65696812 149.24609566 C344.63120213 149.24436489 344.63120213 149.24436489 345.62511763 149.24259916 C347.82851321 149.23992618 350.03183753 149.2444602 352.23522949 149.24888897 C353.82001606 149.24845341 355.40480256 149.24757878 356.98958868 149.2462998 C361.36554278 149.24405191 365.74147264 149.24808012 370.11742365 149.25307786 C374.82842487 149.25737799 379.53942462 149.25593625 384.25042725 149.25517559 C392.41955962 149.25465008 400.58868404 149.25779974 408.75781441 149.26341343 C420.56914938 149.27152472 432.38048048 149.27414327 444.19181793 149.27540142 C463.35281062 149.27759253 482.51379905 149.28425419 501.67478943 149.29370403 C520.29295327 149.30287664 538.91111597 149.30995821 557.52928162 149.31421185 C558.67602519 149.31447457 559.82276877 149.31473729 561.00426216 149.31500798 C566.75687488 149.31631297 572.50948761 149.31757669 578.26210034 149.31881988 C626.02035399 149.32919431 673.77859979 149.34763359 721.53684998 149.36914349 C721.53684998 100.52914349 721.53684998 51.68914349 721.53684998 1.36914349 C665.76000885 1.41872955 665.76000885 1.41872955 609.98316956 1.47030926 C609.04328743 1.47119912 608.10340531 1.47208899 607.13504192 1.47300581 C575.51058281 1.50298298 543.88612716 1.53569607 512.26167297 1.57046795 C510.71419532 1.57216838 510.71419532 1.57216838 509.1354555 1.57390317 C486.71748942 1.59855184 464.29952385 1.62364459 441.88155878 1.6491951 C430.88856349 1.66172148 419.89556809 1.67414968 408.90257263 1.6865263 C407.26162763 1.68837629 407.26162763 1.68837629 405.58753223 1.69026365 C370.09819132 1.73022796 334.60884789 1.76370312 299.11949738 1.79383039 C262.66427381 1.82481176 226.20906265 1.86230527 189.75385447 1.90804961 C184.61051422 1.91450046 179.46717387 1.9208765 174.32383347 1.92720699 C173.31150216 1.9284553 172.29917085 1.9297036 171.25616284 1.93098973 C154.92869043 1.95093038 138.60121938 1.9639603 122.27373846 1.97443676 C105.87833529 1.98510317 89.48295274 2.00297653 73.08756556 2.02831052 C63.33434336 2.04315925 53.58115275 2.0523783 43.82791914 2.05371032 C37.3241297 2.05514144 30.82037594 2.06373317 24.3166027 2.07829941 C20.60356399 2.08640585 16.89059541 2.09125505 13.17754818 2.0874223 C9.18993684 2.08337813 5.20245564 2.0945612 1.21486092 2.10743046 C0.04573408 2.10378078 -1.12339275 2.10013109 -2.32794768 2.09637082 C-3.38170365 2.10229882 -4.43545963 2.10822682 -5.52114761 2.11433446 C-6.43425818 2.11527035 -7.34736876 2.11620623 -8.28814935 2.11717048 C-10.67338199 2.16535204 -10.67338199 2.16535204 -12.46315002 4.36914349 C-14.74049377 5.00195599 -14.74049377 5.00195599 -17.40065002 5.49414349 C-18.27592346 5.66172161 -19.1511969 5.82929974 -20.05299377 6.00195599 C-22.46315002 6.36914349 -22.46315002 6.36914349 -25.46315002 6.36914349 C-16.98986372 0.80854935 -9.9131941 -0.06745621 0 0 Z " fill="#C6C6C6" transform="translate(235.46315002441406,144.63085651397705)"/>
<path d="M0 0 C1.16308337 0.00037972 2.32616674 0.00075944 3.52449507 0.00115067 C4.17229603 -0.00000318 4.820097 -0.00115702 5.48752829 -0.00234583 C7.68518054 -0.0050188 9.88276133 -0.0004848 12.08040994 0.00394398 C13.66107171 0.00350842 15.24173342 0.00263378 16.82239473 0.00135481 C21.18694728 -0.00089307 25.55147553 0.00313512 29.91602498 0.00813287 C34.61475615 0.012433 39.31348584 0.01099126 44.01221842 0.0102306 C52.16006987 0.00970509 60.30791335 0.01285474 68.4557628 0.01846844 C80.23632868 0.02657974 92.01689069 0.02919828 103.79745906 0.03045643 C122.90853745 0.03264753 142.01961158 0.0393092 161.13068765 0.04875904 C179.70034889 0.05793165 198.27000898 0.06501322 216.83967203 0.06926686 C217.98342861 0.06952958 219.12718519 0.0697923 220.30560107 0.07006299 C226.04322972 0.07136798 231.78085837 0.0726317 237.51848704 0.07387489 C285.15232573 0.08424932 332.78615981 0.10186922 380.41999429 0.1241985 C380.41999429 0.4541985 380.41999429 0.7841985 380.41999429 1.1241985 C254.68999429 1.4541985 128.95999429 1.7841985 -0.58000571 2.1241985 C-0.91000571 37.4341985 -1.24000571 72.7441985 -1.58000571 109.1241985 C15.81544962 109.11634327 15.81544962 109.11634327 33.56232828 109.10832936 C70.62313082 109.09229616 107.68393338 109.08116325 144.74473849 109.07313317 C150.49659785 109.07188239 156.24845721 109.07058807 162.00031656 109.06926686 C163.14545971 109.06900455 164.29060285 109.06874223 165.47044731 109.06847198 C184.0384041 109.0641148 202.60635781 109.05622699 221.17431276 109.0470457 C240.21163631 109.03771049 259.24895823 109.03214317 278.28628397 109.03011 C290.04340367 109.0287345 301.80051466 109.02438244 313.55763168 109.01628203 C321.60826308 109.0110162 329.65888995 109.00939383 337.70952296 109.01069712 C342.36168996 109.01134076 347.0138417 109.01032011 351.66600603 109.00499302 C355.91772152 109.00015973 360.16941136 108.99985938 364.42112798 109.0032996 C365.96622356 109.00372536 367.51132067 109.00242904 369.05641317 108.99931531 C371.1428055 108.99535235 373.22910292 108.99743445 375.31549352 109.00115067 C377.06011858 109.00058109 377.06011858 109.00058109 378.83998859 109 C381.41999429 109.1241985 381.41999429 109.1241985 382.41999429 110.1241985 C382.51800632 111.66316045 382.54631274 113.20661525 382.54697794 114.74869496 C382.54979776 115.74846363 382.55261759 116.74823231 382.55552286 117.77829701 C382.55248651 119.43729779 382.55248651 119.43729779 382.54938883 121.12981373 C382.5520173 122.86622624 382.5520173 122.86622624 382.55469888 124.63771778 C382.5591206 128.48609094 382.55617809 132.33441858 382.55280679 136.18279225 C382.55347979 138.84458178 382.55444808 141.50636989 382.55570596 144.16815907 C382.55752764 149.75613105 382.55512168 155.34408984 382.55036539 160.93205982 C382.54492543 167.39801947 382.5466835 173.86394758 382.55219179 180.32990646 C382.55672617 185.87386379 382.5573718 191.4178116 382.55475312 196.96177018 C382.5531918 200.27618256 382.55338354 203.59057683 382.55628961 206.90498883 C382.55881762 210.59974408 382.55497327 214.29443806 382.54938883 217.98918873 C382.55141306 219.09316502 382.55343729 220.19714131 382.55552286 221.33457142 C382.55129312 222.83845417 382.55129312 222.83845417 382.54697794 224.37271839 C382.54660091 225.24712291 382.54622389 226.12152743 382.54583544 227.02242905 C382.41999429 229.1241985 382.41999429 229.1241985 381.41999429 231.1241985 C254.69999429 231.1241985 127.97999429 231.1241985 -2.58000571 231.1241985 C-2.58000571 384.9041985 -2.58000571 538.6841985 -2.58000571 697.1241985 C-2.91000571 697.1241985 -3.24000571 697.1241985 -3.58000571 697.1241985 C-3.6028694 637.64818133 -3.62050458 578.17216423 -3.63107103 518.6961436 C-3.63231843 511.68249718 -3.63361497 504.66885076 -3.63493735 497.65520436 C-3.63506811 496.95724358 -3.63519886 496.2592828 -3.63533359 495.54017169 C-3.63959875 472.89681513 -3.6471129 450.25346106 -3.65630293 427.61010601 C-3.66599263 403.69229642 -3.67199931 379.77448858 -3.6740942 355.85667706 C-3.67546977 341.51996295 -3.6798222 327.18325599 -3.68792217 312.84654408 C-3.6931876 303.02983104 -3.69481047 293.21312172 -3.69350708 283.39640737 C-3.69286338 277.72350713 -3.69388479 272.05061941 -3.69921118 266.37772137 C-3.7040436 261.19339421 -3.7043454 256.0090881 -3.7009046 250.82476001 C-3.70047875 248.94050123 -3.70177581 247.05624118 -3.70488889 245.17198492 C-3.70885027 242.62814963 -3.70677073 240.08439226 -3.70305353 237.5405584 C-3.70568055 236.79395609 -3.70830756 236.04735378 -3.71101418 235.27812716 C-3.6941515 230.23834429 -3.6941515 230.23834429 -2.58000571 229.1241985 C-0.54711288 229.02633738 1.48924825 229.00048621 3.52449507 229.00115067 C4.17229603 228.99999682 4.820097 228.99884298 5.48752829 228.99765417 C7.68518054 228.9949812 9.88276133 228.9995152 12.08040994 229.00394398 C13.66107171 229.00350842 15.24173342 229.00263378 16.82239473 229.00135481 C21.18694728 228.99910693 25.55147553 229.00313512 29.91602498 229.00813287 C34.61475615 229.012433 39.31348584 229.01099126 44.01221842 229.0102306 C52.16006987 229.00970509 60.30791335 229.01285474 68.4557628 229.01846844 C80.23632868 229.02657974 92.01689069 229.02919828 103.79745906 229.03045643 C122.90853745 229.03264753 142.01961158 229.0393092 161.13068765 229.04875904 C179.70034889 229.05793165 198.27000898 229.06501322 216.83967203 229.06926686 C217.98342861 229.06952958 219.12718519 229.0697923 220.30560107 229.07006299 C226.04322972 229.07136798 231.78085837 229.0726317 237.51848704 229.07387489 C285.15232657 229.08424932 332.78615823 229.1026886 380.41999429 229.1241985 C380.41999429 190.1841985 380.41999429 151.2441985 380.41999429 111.1241985 C363.07783365 111.13990895 363.07783365 111.13990895 345.38532633 111.15593678 C308.43305357 111.1880069 271.48078076 111.21027059 234.5284977 111.22632916 C228.79294835 111.2288307 223.05739905 111.23141933 217.32184976 111.23406178 C216.17995954 111.2345864 215.03806932 111.23511102 213.86157636 111.23565154 C195.34925568 111.24436458 176.83694737 111.26013948 158.32463403 111.27850409 C139.34267684 111.29717816 120.36072615 111.30830993 101.37876016 111.31237549 C89.65694781 111.31512573 77.93517041 111.32382577 66.21336882 111.34003143 C58.18562089 111.35056757 50.15789115 111.35380681 42.1301368 111.35120125 C37.49200474 111.34991468 32.85393392 111.35194734 28.21581262 111.36260945 C23.97573954 111.37228586 19.73576935 111.37287026 15.4956917 111.36599629 C13.95596034 111.36514573 12.41622276 111.36773019 10.87650378 111.37396486 C8.79484913 111.38190867 6.71357346 111.37771582 4.63192552 111.37029415 C2.89242669 111.37143331 2.89242669 111.37143331 1.11778647 111.37259549 C-1.58000571 111.1241985 -1.58000571 111.1241985 -3.58000571 109.1241985 C-3.82889467 107.19422013 -3.82889467 107.19422013 -3.82724386 104.79032093 C-3.83143835 103.88028813 -3.83563284 102.97025532 -3.83995444 102.03264576 C-3.83433493 101.0315276 -3.82871542 100.03040943 -3.82292563 98.99895436 C-3.82482397 97.94688298 -3.82672232 96.89481159 -3.82867819 95.81085926 C-3.83239435 92.3201787 -3.82167044 88.82970444 -3.81047446 85.33904225 C-3.80928311 82.92290989 -3.8088294 80.50677706 -3.80908591 78.09064442 C-3.80751963 73.02229124 -3.7992184 67.95400855 -3.78581625 62.88567311 C-3.76881716 56.37278269 -3.76500208 49.85996978 -3.76576144 43.34705979 C-3.76549017 38.35698407 -3.76001613 33.36692547 -3.75275999 28.37685543 C-3.74956686 25.97455751 -3.74760442 23.57225763 -3.74686629 21.1699577 C-3.74471004 17.81995387 -3.73598165 14.47003404 -3.72526938 11.12004811 C-3.72572256 10.11690571 -3.72617575 9.11376332 -3.72664267 8.08022267 C-3.72237768 7.17300968 -3.7181127 6.2657967 -3.71371847 5.33109242 C-3.71204263 4.53818271 -3.71036679 3.745273 -3.70864016 2.92833573 C-3.5007307 0.01234246 -2.93229736 0.14115741 0 0 Z " fill="#676767" transform="translate(576.5800057053566,294.8758015036583)"/>
<path d="M0 0 C1.25809275 -0.00461538 2.5161855 -0.00923075 3.81240228 -0.01398599 C7.29903718 -0.02621631 10.78520269 -0.01360084 14.27180247 0.00312654 C18.06684924 0.01690011 21.86184986 0.00737319 25.65690607 0.00081658 C32.3061945 -0.0074696 38.95533963 -0.00091839 45.6046114 0.01536942 C55.49178686 0.03952133 65.37887207 0.04071154 75.26607166 0.03720146 C91.89830519 0.03194694 108.53047514 0.04530738 125.16269016 0.06927109 C141.63104028 0.09293789 158.09936391 0.10833461 174.5677309 0.11268234 C176.10356832 0.11309478 176.10356832 0.11309478 177.67043276 0.11351555 C182.8702453 0.11486888 188.07005786 0.11607442 193.26987045 0.11722305 C230.10164867 0.12562505 266.93339229 0.15257547 303.76515102 0.1904335 C339.54705019 0.22716997 375.3289399 0.25550505 411.11085415 0.27246475 C412.76523952 0.27325391 412.76523952 0.27325391 414.45304683 0.27405901 C425.52904272 0.27933308 436.60503869 0.28443634 447.68103472 0.28941445 C470.24418447 0.29955934 492.8073336 0.31084435 515.37048244 0.32281876 C516.9266135 0.3236425 516.9266135 0.3236425 518.51418155 0.32448288 C587.79324631 0.36128652 657.07229188 0.42466744 726.35133266 0.49219131 C726.35133266 0.82219131 726.35133266 1.15219131 726.35133266 1.49219131 C725.71600093 1.49227954 725.08066919 1.49236776 724.42608498 1.49245865 C655.25990604 1.50223991 586.09372961 1.51820085 516.92756557 1.56648636 C515.8944749 1.56720581 514.86138423 1.56792526 513.79698778 1.56866652 C491.34543438 1.58433904 468.89388194 1.60112134 446.44233023 1.61904694 C435.43218016 1.62783082 424.4220299 1.63636946 413.41187954 1.64477921 C412.31623411 1.64562025 411.22058868 1.6464613 410.09174188 1.64732783 C374.57528849 1.67447628 339.05885254 1.68542853 303.54238958 1.68798656 C267.04624314 1.69070066 230.5501408 1.70974491 194.05401486 1.74935246 C188.8998276 1.75493844 183.74564017 1.76033764 178.5914526 1.76562309 C177.57702922 1.76666913 176.56260585 1.76771516 175.51744237 1.7687929 C159.1844907 1.78515438 142.85158314 1.78428852 126.5186268 1.77698849 C110.10061989 1.77001779 93.68270471 1.78117701 77.26472244 1.81085422 C67.50909128 1.82793724 57.75368641 1.83110757 47.99805342 1.81436552 C41.47988417 1.80454952 34.96190009 1.81286423 28.44376443 1.8358518 C24.73061308 1.84843002 21.01791466 1.8531909 17.30477235 1.83582058 C13.29982141 1.8172695 9.29597937 1.83750047 5.29105663 1.8613348 C3.57195855 1.84403872 3.57195855 1.84403872 1.81813121 1.82639322 C-11.42211977 1.98184971 -21.32595248 7.44039296 -30.64866734 16.49219131 C-32.24569811 18.45010956 -33.40749566 20.27966789 -34.64866734 22.49219131 C-35.30866734 23.15219131 -35.96866734 23.81219131 -36.64866734 24.49219131 C-40.5641976 33.13300647 -41.22208762 41.28254104 -41.15647602 50.65007019 C-41.1611527 52.04887036 -41.16757905 53.44766557 -41.1755783 54.84645069 C-41.19244747 58.67443846 -41.18464794 62.50203049 -41.17267131 66.33002182 C-41.16405919 70.500373 -41.17871687 74.67065455 -41.19038033 78.84098935 C-41.20762255 86.14452222 -41.21011119 93.44794362 -41.20286465 100.75149155 C-41.19215659 111.61151918 -41.20436669 122.47143711 -41.22123637 133.33145262 C-41.24896848 151.60098738 -41.25816839 169.87048746 -41.25678349 188.14004135 C-41.25547303 206.22754435 -41.26241346 224.31501323 -41.28035831 242.40250778 C-41.2814697 243.52739649 -41.28258109 244.6522852 -41.28372616 245.81126145 C-41.28941329 251.52407054 -41.29524769 257.23687946 -41.30113879 262.94968835 C-41.34259372 303.40688652 -41.36557188 343.86407617 -41.37767124 384.32129288 C-41.38946746 423.62338605 -41.40964091 462.92546035 -41.4411478 502.22754288 C-41.44211576 503.43913796 -41.44308371 504.65073305 -41.44408099 505.89904314 C-41.45381086 518.06644857 -41.46371095 530.23385385 -41.47373575 542.40125904 C-41.49415331 567.18736738 -41.51343476 591.97347656 -41.53202915 616.75958633 C-41.53288548 617.89919586 -41.53374181 619.03880539 -41.53462409 620.21294853 C-41.59167197 696.30601902 -41.62223647 772.39910479 -41.64866734 848.49219131 C-42.30866734 848.49219131 -42.96866734 848.49219131 -43.64866734 848.49219131 C-43.74450629 783.44661405 -43.84012986 718.40103646 -43.93467808 653.35545731 C-43.93608782 652.38565121 -43.93749755 651.41584512 -43.93895001 650.41665096 C-43.96962009 629.3168229 -44.00025358 608.21699478 -44.03084961 587.11716661 C-44.0458641 576.76292679 -44.06088665 566.40868698 -44.07591343 556.05444717 C-44.07740827 555.02432791 -44.07890311 553.99420864 -44.08044326 552.93287363 C-44.12849834 519.81995333 -44.17708009 486.70703383 -44.22594868 453.59411473 C-44.27635874 419.43476101 -44.32621015 385.27540651 -44.37540344 351.11605102 C-44.38242543 346.24021486 -44.38945352 341.3643787 -44.39648533 336.48854256 C-44.39786848 335.52933917 -44.39925163 334.57013578 -44.40067669 333.58186563 C-44.41986886 320.28163627 -44.43943406 306.9814075 -44.45930694 293.68117914 C-44.46757544 288.1425859 -44.47579946 282.60399259 -44.48401951 277.06539927 C-44.49075978 272.52481812 -44.49752196 267.98423699 -44.50433487 263.44365595 C-44.53164571 245.21547997 -44.55750636 226.98730608 -44.57565292 208.75911841 C-44.58217518 202.20788255 -44.58894135 195.65664693 -44.59567567 189.10541128 C-44.59811864 186.70696581 -44.60049132 184.30852028 -44.60286194 181.91007473 C-44.62191651 162.96838436 -44.66063433 144.02691963 -44.72993295 125.08534487 C-44.7325266 124.37589432 -44.73512025 123.66644377 -44.73779249 122.93549472 C-44.74037298 122.23037101 -44.74295346 121.52524729 -44.74561214 120.79875619 C-44.77716569 112.03042042 -44.79868017 103.26205962 -44.81878623 94.49369059 C-44.8364024 87.14941533 -44.86653702 79.80534494 -44.90697074 72.4611617 C-44.92809378 68.06630101 -44.93687801 63.67148311 -44.94194472 59.27657731 C-44.94678728 57.27707803 -44.95679896 55.27758318 -44.97250879 53.27813976 C-44.99312565 50.57586116 -44.99522439 47.87417374 -44.99271488 45.17183208 C-45.00315768 44.40108234 -45.01360048 43.63033259 -45.02435973 42.83622679 C-44.99600303 38.21029618 -44.20932353 34.58819824 -42.39047816 30.32767269 C-41.61403342 28.40649574 -41.10934164 26.51009057 -40.64866734 24.49219131 C-39.98866734 24.49219131 -39.32866734 24.49219131 -38.64866734 24.49219131 C-38.31866734 23.17219131 -37.98866734 21.85219131 -37.64866734 20.49219131 C-36.98866734 20.49219131 -36.32866734 20.49219131 -35.64866734 20.49219131 C-35.31866734 19.17219131 -34.98866734 17.85219131 -34.64866734 16.49219131 C-33.98866734 16.49219131 -33.32866734 16.49219131 -32.64866734 16.49219131 C-32.4024564 15.91469131 -32.15624546 15.33719131 -31.90257359 14.74219131 C-30.44303337 12.12320327 -28.80994755 10.50026093 -26.58616734 8.49219131 C-25.87331577 7.83219131 -25.16046421 7.17219131 -24.42601109 6.49219131 C-16.55849404 0.82669381 -9.55258974 -0.08638716 0 0 Z " fill="#676666" transform="translate(230.64866733551025,143.50780868530273)"/>
<path d="M0 0 C0.33 0 0.66 0 1 0 C1 267.63 1 535.26 1 811 C49.84 811 98.68 811 149 811 C148.84928181 780.46837483 148.84928181 780.46837483 148.69506836 749.93676758 C148.68985983 748.91892799 148.6846513 747.9010884 148.67928493 746.85240519 C148.64606647 740.36584665 148.61272392 733.87928876 148.57931662 727.39273119 C148.56254292 724.1333407 148.54581917 720.87394996 148.52910233 717.61455917 C148.26473604 666.13384968 147.97636611 614.65435133 147.47049332 563.17538071 C147.13560556 529.0415714 146.89557817 494.91007623 146.87706375 460.77447128 C146.87502892 457.8540086 146.87129122 454.93355243 146.86715698 452.01309204 C146.86137013 447.54395441 146.86109837 443.07485173 146.86561775 438.60571289 C146.86664892 436.98896303 146.86611154 435.37221127 146.86385918 433.75546265 C146.86130857 431.55544508 146.86509031 429.3555277 146.87060547 427.15551758 C146.87140106 425.93383377 146.87219666 424.71214996 146.87301636 423.45344543 C147.00351331 419.9044521 147.49400332 416.51290197 148 413 C148.10390703 410.6305053 148.16484103 408.2588512 148.18945312 405.88720703 C148.19774643 405.21479477 148.20603973 404.54238251 148.21458435 403.84959412 C148.23185489 402.40373077 148.24705586 400.95784146 148.26036072 399.51193619 C148.28154579 397.22589404 148.30854763 394.93998431 148.33703613 392.65402222 C148.40653914 386.98489067 148.46645043 381.31566618 148.52606201 375.64642334 C148.5769162 370.83850933 148.63166741 366.03067229 148.69187927 361.22286606 C148.71849929 358.96656299 148.73927421 356.71025273 148.7598877 354.45388794 C148.77647941 353.08139696 148.79335024 351.70890932 148.81054688 350.33642578 C148.82307495 349.13398224 148.83560303 347.9315387 148.84851074 346.69265747 C149 344 149 344 150 343 C151.49283798 342.90428029 152.99019655 342.87811773 154.48609924 342.87974548 C155.45510162 342.87837082 156.424104 342.87699615 157.42247009 342.87557983 C158.49420975 342.87917511 159.5659494 342.88277039 160.67016602 342.88647461 C162.35287598 342.88625557 162.35287598 342.88625557 164.06958008 342.8860321 C167.79770811 342.8867318 171.52578689 342.89452685 175.25390625 342.90234375 C177.83080518 342.90420773 180.40770447 342.90563173 182.98460388 342.90663147 C189.08675115 342.91006658 195.18887794 342.9179574 201.29101747 342.92798096 C208.2364925 342.93914311 215.18196835 342.9446528 222.12745011 342.94967639 C236.41830966 342.96014004 250.7091542 342.97773885 265 343 C265 343.66 265 344.32 265 345 C227.05 345 189.1 345 150 345 C150 499.44 150 653.88 150 813 C100.5 813 51 813 0 813 C0 544.71 0 276.42 0 0 Z " fill="#B4B4B4" transform="translate(189,180)"/>
<path d="M0 0 C1.25018541 -0.00346153 2.50037083 -0.00692307 3.78844064 -0.01048949 C7.25748756 -0.01967333 10.72626963 -0.01019095 14.19529676 0.00234491 C17.96961372 0.01266561 21.74390435 0.00553168 25.51822662 0.00061244 C32.13265508 -0.00560512 38.74700254 -0.00068374 45.36142159 0.01152706 C55.1968018 0.02963359 65.03213095 0.03053434 74.8675248 0.0279011 C91.41226324 0.0239593 107.95696574 0.03398397 124.50169373 0.05195332 C140.88434527 0.06970105 157.26698185 0.08125048 173.64964294 0.08451176 C175.17726539 0.08482109 175.17726539 0.08482109 176.7357489 0.08513666 C181.90771023 0.08615165 187.07967157 0.08705581 192.25163293 0.08791729 C228.88984698 0.09421944 265.52804147 0.11443408 302.16624451 0.14282513 C337.76097001 0.17037575 373.35569016 0.1916279 408.95042419 0.20434856 C410.59604252 0.20494043 410.59604252 0.20494043 412.27490567 0.20554426 C423.29216761 0.2094998 434.3094296 0.21332724 445.32669162 0.21706083 C467.77036123 0.22466959 490.21403049 0.23313334 512.65769958 0.24211407 C514.20560364 0.24273187 514.20560364 0.24273187 515.78477849 0.24336216 C547.41641208 0.25603207 579.04804236 0.27232611 610.67967224 0.29219341 C611.57777427 0.29275609 612.4758763 0.29331876 613.40119354 0.29389848 C649.7797472 0.31674509 686.15829826 0.34342634 722.53684998 0.36914349 C722.53684998 49.86914349 722.53684998 99.36914349 722.53684998 150.36914349 C596.14684998 150.36914349 469.75684998 150.36914349 339.53684998 150.36914349 C339.53684998 150.03914349 339.53684998 149.70914349 339.53684998 149.36914349 C465.59684998 149.36914349 591.65684998 149.36914349 721.53684998 149.36914349 C721.53684998 100.52914349 721.53684998 51.68914349 721.53684998 1.36914349 C665.76000885 1.41872955 665.76000885 1.41872955 609.98316956 1.47030926 C609.04328743 1.47119912 608.10340531 1.47208899 607.13504192 1.47300581 C575.51058281 1.50298298 543.88612716 1.53569607 512.26167297 1.57046795 C510.71419532 1.57216838 510.71419532 1.57216838 509.1354555 1.57390317 C486.71748942 1.59855184 464.29952385 1.62364459 441.88155878 1.6491951 C430.88856349 1.66172148 419.89556809 1.67414968 408.90257263 1.6865263 C407.26162763 1.68837629 407.26162763 1.68837629 405.58753223 1.69026365 C370.09819132 1.73022796 334.60884789 1.76370312 299.11949738 1.79383039 C262.66427381 1.82481176 226.20906265 1.86230527 189.75385447 1.90804961 C184.61051422 1.91450046 179.46717387 1.9208765 174.32383347 1.92720699 C173.31150216 1.9284553 172.29917085 1.9297036 171.25616284 1.93098973 C154.92869043 1.95093038 138.60121938 1.9639603 122.27373846 1.97443676 C105.87833529 1.98510317 89.48295274 2.00297653 73.08756556 2.02831052 C63.33434336 2.04315925 53.58115275 2.0523783 43.82791914 2.05371032 C37.3241297 2.05514144 30.82037594 2.06373317 24.3166027 2.07829941 C20.60356399 2.08640585 16.89059541 2.09125505 13.17754818 2.0874223 C9.18993684 2.08337813 5.20245564 2.0945612 1.21486092 2.10743046 C0.04573408 2.10378078 -1.12339275 2.10013109 -2.32794768 2.09637082 C-3.38170365 2.10229882 -4.43545963 2.10822682 -5.52114761 2.11433446 C-6.43425818 2.11527035 -7.34736876 2.11620623 -8.28814935 2.11717048 C-10.67338199 2.16535204 -10.67338199 2.16535204 -12.46315002 4.36914349 C-14.74049377 5.00195599 -14.74049377 5.00195599 -17.40065002 5.49414349 C-18.27592346 5.66172161 -19.1511969 5.82929974 -20.05299377 6.00195599 C-22.46315002 6.36914349 -22.46315002 6.36914349 -25.46315002 6.36914349 C-16.98986372 0.80854935 -9.9131941 -0.06745621 0 0 Z " fill="#B9B9B9" transform="translate(235.46315002441406,144.63085651397705)"/>
<path d="M0 0 C0.66 0.33 1.32 0.66 2 1 C0.23000902 2.93827536 -1.54095761 4.87564344 -3.3125 6.8125 C-3.81201172 7.35970703 -4.31152344 7.90691406 -4.82617188 8.47070312 C-8.77613744 12.78689067 -8.77613744 12.78689067 -10.7890625 14.703125 C-12.72528714 16.77675913 -13.18061465 19.32334119 -14 22 C-14.51612075 22.90809997 -14.51612075 22.90809997 -15.04266819 23.83454539 C-16.25864816 26.58505405 -16.25203438 28.70391598 -16.25480902 31.70977378 C-16.26073703 32.88413114 -16.26666503 34.05848849 -16.27277267 35.26843244 C-16.26912299 36.56225723 -16.26547331 37.85608202 -16.26171303 39.18911362 C-16.26489942 40.58029076 -16.26896152 41.97146612 -16.27382231 43.36263841 C-16.28469265 47.20666544 -16.28305111 51.05060315 -16.27947159 54.89464017 C-16.27777087 59.06856756 -16.28761474 63.24246981 -16.29602563 67.41638684 C-16.30917589 74.73860578 -16.31488509 82.06080158 -16.31578636 89.38303185 C-16.31715992 100.27099015 -16.32992852 111.15891399 -16.3450741 122.04686077 C-16.37022403 140.3603054 -16.38606987 158.67374714 -16.39665604 176.98720551 C-16.40717147 195.1259702 -16.4217959 213.26472387 -16.44193649 231.40348053 C-16.44318536 232.5303055 -16.44443423 233.65713048 -16.44572094 234.81810166 C-16.45208448 240.54042241 -16.45852172 246.26274307 -16.46498732 251.9850637 C-16.5106785 292.54098073 -16.54711392 333.09690134 -16.578125 373.65283203 C-16.60827737 413.0581108 -16.6426105 452.46338229 -16.68261719 491.86865234 C-16.68384819 493.0827937 -16.68507919 494.29693505 -16.6863475 495.54786856 C-16.69871411 507.7405143 -16.71116585 519.93315995 -16.72367998 532.12580554 C-16.74917192 556.96474959 -16.77409551 581.80369419 -16.79867554 606.64263916 C-16.79980645 607.78475249 -16.80093736 608.92686583 -16.80210253 610.10358866 C-16.87758766 686.40238398 -16.93982285 762.70119126 -17 839 C-17.33 839 -17.66 839 -18 839 C-18.06854275 761.42745304 -18.13214277 683.85490243 -18.16937256 606.28233337 C-18.1702009 604.560793 -18.1702009 604.560793 -18.17104598 602.80447403 C-18.18301699 577.86332895 -18.19409781 552.92218356 -18.20426132 527.98103768 C-18.20925076 515.75029784 -18.21443696 503.51955808 -18.21972656 491.28881836 C-18.2202496 490.0716984 -18.22077263 488.85457843 -18.22131152 487.60057605 C-18.23836364 448.13449713 -18.26841389 408.66844109 -18.30518888 369.20237604 C-18.34290445 328.65335658 -18.36753834 288.10434979 -18.37565996 247.55531309 C-18.37681262 241.83095228 -18.37811517 236.10659152 -18.37950897 230.38223076 C-18.37977866 229.25556992 -18.38004836 228.12890909 -18.38032622 226.96810702 C-18.38505716 208.81580405 -18.40362036 190.66354019 -18.42732814 172.51125319 C-18.45085549 154.27187158 -18.45987734 136.03252882 -18.45400551 117.79313255 C-18.45095811 106.95043671 -18.4591195 96.10788283 -18.48319017 85.26521256 C-18.49816572 78.02629701 -18.4986716 70.78747466 -18.48732725 63.54855274 C-18.48127607 59.42131299 -18.48159644 55.29434211 -18.49953273 51.16713095 C-18.51573018 47.41154887 -18.51346983 43.65644526 -18.4965599 39.90087045 C-18.49236047 37.91555903 -18.50778565 35.93023562 -18.5240339 33.94498625 C-18.45066203 24.2444744 -16.52601008 17.3170416 -10 10 C-9.195625 8.989375 -8.39125 7.97875 -7.5625 6.9375 C-5.21016552 4.24092145 -2.86418333 2.12767904 0 0 Z " fill="#F1F0F0" transform="translate(208,152)"/>
<path d="M0 0 C1.27069163 0.00138269 1.27069163 0.00138269 2.56705379 0.00279331 C3.53605618 0.00141865 4.50505856 0.00004398 5.50342464 -0.00137234 C7.11103413 0.00402058 7.11103413 0.00402058 8.75112057 0.00952244 C10.43383053 0.0093034 10.43383053 0.0093034 12.15053463 0.00907993 C15.87866266 0.00977963 19.60674144 0.01757468 23.3348608 0.02539158 C25.91175973 0.02725556 28.48865902 0.02867955 31.06555843 0.0296793 C37.16770571 0.03311441 43.26983249 0.04100523 49.37197202 0.05102879 C56.31744705 0.06219094 63.26292291 0.06770063 70.20840466 0.07272422 C84.49926422 0.08318787 98.79010875 0.10078668 113.08095455 0.12304783 C113.08095455 0.78304783 113.08095455 1.44304783 113.08095455 2.12304783 C75.13095455 2.12304783 37.18095455 2.12304783 -1.91904545 2.12304783 C-1.90873295 12.48195408 -1.89842045 22.84086033 -1.88779545 33.51367283 C-1.88530692 40.52735517 -1.88349753 47.5410107 -1.88779545 54.55468845 C-1.88835438 55.46731355 -1.88891331 56.37993864 -1.88948917 57.32021904 C-1.91770787 96.06854335 -2.15799153 134.81656549 -2.36442757 173.5642581 C-2.42648185 185.22705774 -2.48620254 196.88986905 -2.54580307 208.55268145 C-2.66776704 232.40948326 -2.79242162 256.26627032 -2.91904545 280.12304783 C-3.24904545 280.12304783 -3.57904545 280.12304783 -3.91904545 280.12304783 C-5.02255413 171.73126276 -5.02255413 171.73126276 -5.04242802 117.81361103 C-5.04404389 114.93832909 -5.04759697 112.06305511 -5.05161381 109.18777561 C-5.05740751 104.70537079 -5.05774199 100.2230001 -5.05336475 95.74059391 C-5.05237661 94.11882387 -5.05293549 92.49705199 -5.05520344 90.87528324 C-5.05775137 88.67634131 -5.05396575 86.47749985 -5.04843998 84.27856541 C-5.04764439 83.0568816 -5.04684879 81.83519779 -5.04602909 80.57649326 C-4.91553214 77.02749993 -4.42504213 73.63594979 -3.91904545 70.12304783 C-3.81513842 67.75355313 -3.75420442 65.38189903 -3.72959232 63.01025486 C-3.72129902 62.3378426 -3.71300571 61.66543034 -3.7044611 60.97264194 C-3.68719056 59.5267786 -3.67198958 58.08088929 -3.65868473 56.63498402 C-3.63749966 54.34894187 -3.61049782 52.06303214 -3.58200932 49.77707005 C-3.51250631 44.1079385 -3.45259502 38.43871401 -3.39298344 32.76947117 C-3.34212925 27.96155716 -3.28737804 23.15372012 -3.22716618 18.34591389 C-3.20054616 16.08961082 -3.17977124 13.83330056 -3.15915775 11.57693577 C-3.14256604 10.20444479 -3.12569521 8.83195714 -3.10849857 7.45947361 C-3.0959705 6.25703007 -3.08344242 5.05458652 -3.07053471 3.8157053 C-2.86620205 0.18377884 -2.86620205 0.18377884 0 0 Z " fill="#C2C2C2" transform="translate(340.9190454483032,522.8769521713257)"/>
<path d="M0 0 C13.41225793 -0.0231207 26.82451117 -0.04091369 40.23678493 -0.05181217 C46.46393472 -0.0570416 52.69107092 -0.06414033 58.91821289 -0.07543945 C64.92226865 -0.08626621 70.92631129 -0.09227638 76.93037605 -0.09487724 C79.2266161 -0.09673188 81.52285539 -0.10035321 83.81908989 -0.10573006 C87.02320814 -0.11293768 90.2272715 -0.11399106 93.43139648 -0.11352539 C94.87069267 -0.1189183 94.87069267 -0.1189183 96.33906555 -0.12442017 C97.20709808 -0.1230455 98.07513062 -0.12167084 98.96946716 -0.12025452 C99.72810279 -0.12117631 100.48673841 -0.1220981 101.268363 -0.12304783 C103 0 103 0 104 1 C104.09558036 2.44213999 104.12188394 3.88894079 104.12025452 5.33424377 C104.12232076 6.73433229 104.12232076 6.73433229 104.12442875 8.16270542 C104.11903159 9.7171406 104.11903159 9.7171406 104.11352539 11.30297852 C104.11364593 12.40335166 104.11376646 13.5037248 104.11389065 14.63744259 C104.11314113 18.21795067 104.10551111 21.79840742 104.09765625 25.37890625 C104.09618695 27.5819903 104.09516617 29.78507471 104.09460449 31.98815918 C104.08935019 40.17961142 104.07538913 48.37105621 104.0625 56.5625 C104.041875 74.856875 104.02125 93.15125 104 112 C65.72 112 27.44 112 -12 112 C-12.0825 95.603125 -12.165 79.20625 -12.25 62.3125 C-12.28641602 57.13731689 -12.32283203 51.96213379 -12.36035156 46.63012695 C-12.37841797 40.30505371 -12.37841797 40.30505371 -12.3817749 37.34294128 C-12.38791271 35.2764593 -12.40197179 33.20999155 -12.42230225 31.14360046 C-12.45157666 28.0112524 -12.4556243 24.8797788 -12.45410156 21.74731445 C-12.468494 20.82846875 -12.48288643 19.90962305 -12.497715 18.96293354 C-12.47077951 14.82463297 -12.38179687 12.60714076 -10.13568115 9.0353241 C-3.80276939 3 -3.80276939 3 -1 3 C-0.67 2.01 -0.34 1.02 0 0 Z M3 2 C3 2.66 3 3.32 3 4 C2.41347656 4.10441406 1.82695312 4.20882813 1.22265625 4.31640625 C-1.32895135 5.10117133 -2.60337615 6.14492359 -4.5625 7.9375 C-6.67386601 9.85136629 -8.60834339 11.40556226 -11 13 C-11.28601876 16.14031496 -11.37780351 19.08163218 -11.34057617 22.22314453 C-11.34093778 23.1947798 -11.34129938 24.16641506 -11.34167194 25.16749382 C-11.33942695 28.3228073 -11.3165545 31.47759373 -11.29296875 34.6328125 C-11.28855972 36.57673893 -11.28549806 38.52066891 -11.28381348 40.46459961 C-11.26806375 47.68478727 -11.22618034 54.90489877 -11.1875 62.125 C-11.125625 78.25375 -11.06375 94.3825 -11 111 C26.62 111 64.24 111 103 111 C103 75.03 103 39.06 103 2 C70 2 37 2 3 2 Z " fill="#919191" transform="translate(351,294)"/>
<path d="M0 0 C0 0.33 0 0.66 0 1 C-0.85722656 1.24234375 -1.71445313 1.4846875 -2.59765625 1.734375 C-15.11293717 5.40289027 -25.07416205 10.54572954 -32 22 C-32.66 22.66 -33.32 23.32 -34 24 C-34.76676311 26.02044877 -35.46795386 28.06625542 -36.125 30.125 C-36.47820312 31.22070312 -36.83140625 32.31640625 -37.1953125 33.4453125 C-37.59363281 34.70988281 -37.59363281 34.70988281 -38 36 C-38.66 36 -39.32 36 -40 36 C-40 123.12 -40 210.24 -40 300 C-40.33 300 -40.66 300 -41 300 C-41.38484165 249.66698424 -41.72697419 199.33375397 -42 149 C-42.00425617 148.21830444 -42.00851234 147.43660889 -42.01289749 146.63122559 C-42.11380581 128.04485696 -42.19431688 109.45866121 -42.23217773 90.87203979 C-42.24249277 86.01027449 -42.25989334 81.14861459 -42.28344727 76.28689575 C-42.31048842 70.62688072 -42.32314701 64.96702375 -42.32407379 59.3069458 C-42.32673103 57.26342456 -42.33440617 55.21990237 -42.3476181 53.17642212 C-42.36459529 50.41242209 -42.36291395 47.64904015 -42.35644531 44.88500977 C-42.36566261 44.09402169 -42.37487991 43.30303362 -42.38437653 42.48807621 C-42.34929779 37.80874835 -41.58576724 34.13749698 -39.74137497 29.82826138 C-38.96341132 27.90977079 -38.46009399 26.01602977 -38 24 C-37.34 24 -36.68 24 -36 24 C-35.67 22.68 -35.34 21.36 -35 20 C-34.34 20 -33.68 20 -33 20 C-32.67 18.68 -32.34 17.36 -32 16 C-31.34 16 -30.68 16 -30 16 C-29.75378906 15.4225 -29.50757813 14.845 -29.25390625 14.25 C-25.75215393 7.96648181 -18.92666081 3.25800117 -12.3515625 0.609375 C-8.24456859 -0.45489585 -4.20391324 -0.31595173 0 0 Z " fill="#464646" transform="translate(228,144)"/>
<path d="M0 0 C0 0.33 0 0.66 0 1 C-0.85722656 1.24234375 -1.71445313 1.4846875 -2.59765625 1.734375 C-15.11293717 5.40289027 -25.07416205 10.54572954 -32 22 C-32.66 22.66 -33.32 23.32 -34 24 C-35.10841076 27.08709716 -36.04491022 30.21003709 -37 33.34765625 C-38 36 -38 36 -40 37 C-40.33 73.96 -40.66 110.92 -41 149 C-41.33 149 -41.66 149 -42 149 C-42.07019365 134.40483275 -42.12303878 119.80968795 -42.15543652 105.21438599 C-42.17088162 98.43697454 -42.19192576 91.65966819 -42.22631836 84.88232422 C-42.25950197 78.34008175 -42.27686087 71.79790739 -42.28463173 65.25558472 C-42.29016865 62.76136559 -42.30098087 60.26715234 -42.31719017 57.77297974 C-42.33901227 54.2756059 -42.34196485 50.77868113 -42.34057617 47.28125 C-42.351362 46.25337875 -42.36214783 45.22550751 -42.3732605 44.16648865 C-42.34695124 38.03064916 -41.44641515 33.62696072 -39 28 C-38.64369563 26.67262059 -38.30421834 25.34027612 -38 24 C-37.34 24 -36.68 24 -36 24 C-35.67 22.68 -35.34 21.36 -35 20 C-34.34 20 -33.68 20 -33 20 C-32.67 18.68 -32.34 17.36 -32 16 C-31.34 16 -30.68 16 -30 16 C-29.75378906 15.4225 -29.50757813 14.845 -29.25390625 14.25 C-25.75215393 7.96648181 -18.92666081 3.25800117 -12.3515625 0.609375 C-8.24456859 -0.45489585 -4.20391324 -0.31595173 0 0 Z " fill="#222121" transform="translate(228,144)"/>
<path d="M0 0 C40.26 0 80.52 0 122 0 C121.67 0.99 121.34 1.98 121 3 C81.4 3 41.8 3 1 3 C0.67 2.01 0.34 1.02 0 0 Z " fill="#2A2929" transform="translate(453,992)"/>
<path d="M0 0 C0.66 0.33 1.32 0.66 2 1 C0.23000902 2.93827536 -1.54095761 4.87564344 -3.3125 6.8125 C-3.81201172 7.35970703 -4.31152344 7.90691406 -4.82617188 8.47070312 C-8.77613744 12.78689067 -8.77613744 12.78689067 -10.7890625 14.703125 C-12.72528714 16.77675913 -13.18061465 19.32334119 -14 22 C-14.34359243 22.60518841 -14.68718487 23.21037682 -15.04118919 23.83390427 C-16.25776814 26.58233644 -16.26208808 28.71614806 -16.2784729 31.72003174 C-16.28963638 32.88668365 -16.30079987 34.05333557 -16.31230164 35.25534058 C-16.31446182 36.53136139 -16.31662201 37.8073822 -16.31884766 39.12207031 C-16.32814797 40.482255 -16.33831679 41.84243398 -16.34928894 43.2026062 C-16.37659156 46.89232221 -16.39173908 50.58200004 -16.40471697 54.2717905 C-16.42034638 58.12889041 -16.4471372 61.98591232 -16.4727478 65.84295654 C-16.51953896 73.14556646 -16.55628143 80.44819104 -16.58942068 87.75087428 C-16.62763969 96.06524638 -16.67705042 104.37954015 -16.72740483 112.69384623 C-16.8307297 129.79584083 -16.91998829 146.89788076 -17 164 C-17.33 164 -17.66 164 -18 164 C-18.09356269 145.90174546 -18.16403755 127.80355395 -18.20724869 109.7051096 C-18.22784828 101.30112674 -18.25591887 92.89729442 -18.30175781 84.4934082 C-18.34170555 77.16607447 -18.36745173 69.83884979 -18.37635398 62.51141018 C-18.38155536 58.63380263 -18.39372558 54.756507 -18.42292023 50.87899971 C-18.45021517 47.22394154 -18.45841691 43.56932164 -18.45243073 39.91417122 C-18.45404353 37.9441784 -18.47549232 35.97423253 -18.49768066 34.00436401 C-18.45270357 24.2676882 -16.54980144 17.34371676 -10 10 C-9.195625 8.989375 -8.39125 7.97875 -7.5625 6.9375 C-5.21016552 4.24092145 -2.86418333 2.12767904 0 0 Z " fill="#F0F0F0" transform="translate(208,152)"/>
<path d="M0 0 C0.33 0 0.66 0 1 0 C1.02313912 9.48347252 1.04092312 18.96693536 1.05181217 28.45042992 C1.05703755 32.85368215 1.06412897 37.25691511 1.07543945 41.66015625 C1.08628054 45.90709244 1.09227944 50.15401006 1.09487724 54.40095901 C1.09672928 56.02372149 1.10034568 57.64648292 1.10573006 59.26923752 C1.11295668 61.53677339 1.11399025 63.80423187 1.11352539 66.07177734 C1.115746 67.36417328 1.11796661 68.65656921 1.12025452 69.98812866 C1 73 1 73 0 75 C-0.1225329 77.71477315 -0.18570817 80.40557006 -0.20532227 83.12158203 C-0.21522186 83.96068115 -0.22512146 84.79978027 -0.23532104 85.66430664 C-0.26697792 88.44544629 -0.29171 91.22660304 -0.31640625 94.0078125 C-0.33697216 95.93309988 -0.35796854 97.85838271 -0.37937927 99.78366089 C-0.43463741 104.85695718 -0.48403017 109.93029447 -0.53222656 115.00366211 C-0.58241429 120.17825988 -0.63811458 125.35279794 -0.69335938 130.52734375 C-0.8009867 140.68484485 -0.9024215 150.84239774 -1 161 C-1.33 161 -1.66 161 -2 161 C-2.02319319 149.51674039 -2.04095067 138.03348637 -2.05181217 126.55020809 C-2.05702573 121.2177898 -2.06409564 115.88538757 -2.07543945 110.55297852 C-2.0863226 105.40476385 -2.09228835 100.2565646 -2.09487724 95.10833931 C-2.09672171 93.14640625 -2.10032346 91.18447401 -2.10573006 89.22254753 C-2.11301251 86.46987982 -2.1139879 83.71727544 -2.11352539 80.96459961 C-2.11712067 80.15755081 -2.12071594 79.35050201 -2.12442017 78.51899719 C-2.1160712 73.91238432 -1.6866712 69.5652116 -1 65 C-0.89232177 62.7477087 -0.82544299 60.49317928 -0.79467773 58.23852539 C-0.7647599 56.28729515 -0.7647599 56.28729515 -0.73423767 54.29664612 C-0.71725972 52.896984 -0.70038069 51.49732067 -0.68359375 50.09765625 C-0.6629938 48.65033923 -0.64199659 47.20302781 -0.62062073 45.75572205 C-0.56571374 41.96646698 -0.5161676 38.17716048 -0.46777344 34.38781738 C-0.4173277 30.51305625 -0.36176269 26.63836881 -0.30664062 22.76367188 C-0.19944345 15.17584385 -0.09791495 7.58795409 0 0 Z " fill="#CCCCCC" transform="translate(338,528)"/>
<path d="M0 0 C0.85257889 -0.00137466 1.70515778 -0.00274933 2.58357239 -0.00416565 C3.52080643 -0.00057037 4.45804047 0.0030249 5.42367554 0.00672913 C6.40907822 0.0065831 7.3944809 0.00643707 8.40974426 0.00628662 C11.67791927 0.00698518 14.94603779 0.01477497 18.21420288 0.02259827 C20.47578907 0.02446265 22.73737566 0.02588646 24.9989624 0.02688599 C30.96006377 0.03070959 36.9211409 0.04053855 42.88223267 0.05158997 C48.96163607 0.06180745 55.04104337 0.06638433 61.12045288 0.07142639 C73.05535939 0.08216094 84.99024787 0.0992355 96.92514038 0.12025452 C96.92514038 0.45025452 96.92514038 0.78025452 96.92514038 1.12025452 C64.25514038 1.12025452 31.58514038 1.12025452 -2.07485962 1.12025452 C-2.07485962 1.78025452 -2.07485962 2.44025452 -2.07485962 3.12025452 C-3.72851368 4.14162909 -5.39862464 5.13637746 -7.07485962 6.12025452 C-9.13115833 7.72869426 -11.09498481 9.41664131 -13.07485962 11.12025452 C-13.40485962 9.80025452 -13.73485962 8.48025452 -14.07485962 7.12025452 C-12.78468548 6.13912209 -11.49266856 5.16041252 -10.19985962 4.18275452 C-9.12091431 3.36484436 -9.12091431 3.36484436 -8.02017212 2.53041077 C-5.13681222 0.44026433 -3.50825104 -0.00435267 0 0 Z " fill="#626262" transform="translate(356.0748596191406,294.87974548339844)"/>
<path d="M0 0 C0.99 0.33 1.98 0.66 3 1 C2.51391769 1.46319641 2.02783539 1.92639282 1.52702332 2.40362549 C-0.7861983 6.33676101 -0.4394377 10.05564024 -0.43237305 14.54199219 C-0.4425647 15.50817978 -0.45275635 16.47436737 -0.46325684 17.46983337 C-0.49344211 20.66223915 -0.50266137 23.85434513 -0.51171875 27.046875 C-0.5285613 29.26077272 -0.54671097 31.47466086 -0.56611633 33.6885376 C-0.61366827 39.51476038 -0.64344416 45.34094429 -0.66955566 51.16729736 C-0.69933489 57.11291176 -0.74587429 63.05839216 -0.79101562 69.00390625 C-0.87710792 80.66920082 -0.94442694 92.33452292 -1 104 C-1.33 104 -1.66 104 -2 104 C-2.04630462 91.03071734 -2.0818597 78.0614543 -2.10362434 65.09210587 C-2.11406934 59.07016331 -2.12824168 53.04827723 -2.15087891 47.02636719 C-2.17258164 41.21680901 -2.18456323 35.40730523 -2.18975449 29.59770966 C-2.19345485 27.3793019 -2.20068058 25.16089717 -2.21146011 22.94251251 C-2.22594075 19.83953883 -2.22797936 16.736791 -2.22705078 13.63378906 C-2.23424133 12.71309631 -2.24143188 11.79240356 -2.24884033 10.84381104 C-2.246091 9.99689697 -2.24334167 9.14998291 -2.24050903 8.27740479 C-2.24235262 7.54365757 -2.24419621 6.80991035 -2.24609566 6.05392838 C-1.96265572 3.68832248 -1.17042833 2.05890602 0 0 Z " fill="#C3C3C3" transform="translate(340,301)"/>
<path d="M0 0 C0 0.33 0 0.66 0 1 C-0.85722656 1.24234375 -1.71445313 1.4846875 -2.59765625 1.734375 C-15.11293717 5.40289027 -25.07416205 10.54572954 -32 22 C-32.66 22.66 -33.32 23.32 -34 24 C-34.71408334 25.98356483 -35.38617742 27.98315437 -36 30 C-36.33 30 -36.66 30 -37 30 C-36.505 25.545 -36.505 25.545 -36 21 C-35.01 20.67 -34.02 20.34 -33 20 C-32.26676204 17.98491642 -32.26676204 17.98491642 -32 16 C-31.34 16 -30.68 16 -30 16 C-29.75378906 15.4225 -29.50757813 14.845 -29.25390625 14.25 C-25.75215393 7.96648181 -18.92666081 3.25800117 -12.3515625 0.609375 C-8.24456859 -0.45489585 -4.20391324 -0.31595173 0 0 Z " fill="#484748" transform="translate(228,144)"/>
<path d="M0 0 C0.66 0.33 1.32 0.66 2 1 C0.23000902 2.93827536 -1.54095761 4.87564344 -3.3125 6.8125 C-3.81201172 7.35970703 -4.31152344 7.90691406 -4.82617188 8.47070312 C-8.77244598 12.78285695 -8.77244598 12.78285695 -10.79296875 14.7109375 C-12.72415998 16.77337474 -13.16352928 19.33374957 -14 22 C-14.97004121 24.01470098 -15.96244882 26.01922047 -17 28 C-18.54168799 23.61364901 -17.09014207 21.19235256 -15.171875 17.171875 C-13.71934621 14.47985497 -12.03503031 12.28170065 -10 10 C-9.195625 8.989375 -8.39125 7.97875 -7.5625 6.9375 C-5.21016552 4.24092145 -2.86418333 2.12767904 0 0 Z " fill="#DBD9DA" transform="translate(208,152)"/>
<path d="M0 0 C1.36066226 0.01507524 2.72134069 0.02875862 4.08203125 0.04101562 C7.38843843 0.07619017 10.69400684 0.12541712 14 0.1875 C14 0.5175 14 0.8475 14 1.1875 C12.78884521 1.217229 12.78884521 1.217229 11.55322266 1.24755859 C7.91014125 1.34255899 4.26765314 1.45233912 0.625 1.5625 C-0.64601562 1.5934375 -1.91703125 1.624375 -3.2265625 1.65625 C-4.43828125 1.69492188 -5.65 1.73359375 -6.8984375 1.7734375 C-8.57945557 1.82056885 -8.57945557 1.82056885 -10.29443359 1.86865234 C-13.14710412 1.92161203 -13.14710412 1.92161203 -15 4.1875 C-17.27734375 4.8203125 -17.27734375 4.8203125 -19.9375 5.3125 C-20.81277344 5.48007813 -21.68804687 5.64765625 -22.58984375 5.8203125 C-25 6.1875 -25 6.1875 -28 6.1875 C-18.68540036 0.07479399 -10.91912972 -0.20854361 0 0 Z " fill="#B8B8B9" transform="translate(238,144.8125)"/>
<path d="M0 0 C0.99 0.33 1.98 0.66 3 1 C2.2733313 1.70721191 2.2733313 1.70721191 1.53198242 2.42871094 C-0.73891082 6.24019264 -0.47908733 9.7779407 -0.51171875 14.140625 C-0.52966995 15.02280701 -0.54762115 15.90498901 -0.56611633 16.81390381 C-0.62020971 19.62588755 -0.65411176 22.43770165 -0.6875 25.25 C-0.72067395 27.15887777 -0.75516368 29.06773315 -0.79101562 30.9765625 C-0.87593561 35.65091925 -0.94275141 40.32522576 -1 45 C-1.33 45 -1.66 45 -2 45 C-2.04945571 39.23422496 -2.0857461 33.46857354 -2.10986328 27.70263672 C-2.11991783 25.74135182 -2.13356333 23.78008189 -2.15087891 21.81884766 C-2.17515113 18.99898582 -2.18648859 16.17932228 -2.1953125 13.359375 C-2.21079636 12.04510529 -2.21079636 12.04510529 -2.22659302 10.70428467 C-2.22674408 9.88373596 -2.22689514 9.06318726 -2.22705078 8.21777344 C-2.231492 7.49829529 -2.23593323 6.77881714 -2.24050903 6.03753662 C-1.96199823 3.67805788 -1.16589346 2.05358654 0 0 Z " fill="#C7C7C7" transform="translate(340,301)"/>
<path d="M0 0 C0 0.33 0 0.66 0 1 C-6.96140444 3.18605079 -13.89562096 5.3283814 -21 7 C-16.22900898 -0.15648653 -7.95766899 -0.59807116 0 0 Z " fill="#373737" transform="translate(228,144)"/>
<path d="M0 0 C-0.70125 0.556875 -1.4025 1.11375 -2.125 1.6875 C-5.11344261 4.09124732 -8.05940238 6.53810432 -11 9 C-11.33 7.68 -11.66 6.36 -12 5 C-7.90746174 1.10234452 -5.90669543 -0.70317803 0 0 Z " fill="#323232" transform="translate(354,297)"/>
<path d="M0 0 C0 5.5515746 -2.46372398 10.15801851 -5 15 C-5.89234179 12.51053693 -6.08442558 11.27333365 -5.29296875 8.7109375 C-4.92816406 7.94007813 -4.56335938 7.16921875 -4.1875 6.375 C-3.83042969 5.59898437 -3.47335938 4.82296875 -3.10546875 4.0234375 C-2 2 -2 2 0 0 Z " fill="#CAC8C9" transform="translate(196,165)"/>
<path d="M0 0 C-2.38642385 2.38642385 -3.66778384 2.52003049 -6.9375 3.125 C-7.81277344 3.29257813 -8.68804687 3.46015625 -9.58984375 3.6328125 C-12 4 -12 4 -15 4 C-5.53070175 -2.12719298 -5.53070175 -2.12719298 0 0 Z " fill="#C2C1C2" transform="translate(225,147)"/>
<path d="M0 0 C0.66 0.33 1.32 0.66 2 1 C1.21625 1.86625 0.4325 2.7325 -0.375 3.625 C-2.83386728 6.55056447 -4.02450104 9.27536762 -5 13 C-5.33 13 -5.66 13 -6 13 C-5.93993922 11.54052295 -5.8511311 10.08220728 -5.75 8.625 C-5.70359375 7.81289062 -5.6571875 7.00078125 -5.609375 6.1640625 C-5 4 -5 4 -3.015625 2.8359375 C-2.35046875 2.56007812 -1.6853125 2.28421875 -1 2 C-0.67 1.34 -0.34 0.68 0 0 Z " fill="#5D5B5C" transform="translate(197,161)"/>
<path d="M0 0 C0.99 0.33 1.98 0.66 3 1 C2.51917969 1.52078125 2.03835938 2.0415625 1.54296875 2.578125 C-0.45173865 5.70905813 -0.50318411 8.06368221 -0.6875 11.75 C-0.75324219 12.92046875 -0.81898438 14.0909375 -0.88671875 15.296875 C-0.92410156 16.18890625 -0.96148437 17.0809375 -1 18 C-1.33 18 -1.66 18 -2 18 C-2.054138 15.75026553 -2.09285491 13.50015617 -2.125 11.25 C-2.14820313 9.99703125 -2.17140625 8.7440625 -2.1953125 7.453125 C-2.01537302 4.27179508 -1.68998582 2.63478104 0 0 Z " fill="#D0D0D0" transform="translate(340,301)"/>
<path d="M0 0 C0.66 0.33 1.32 0.66 2 1 C1.34 4.63 0.68 8.26 0 12 C-0.66 12 -1.32 12 -2 12 C-2.17835515 7.45194365 -1.99785435 4.1205746 0 0 Z " fill="#363536" transform="translate(190,168)"/>
</svg>
