<?xml version="1.0" encoding="UTF-8"?>
<svg version="1.1" xmlns="http://www.w3.org/2000/svg" width="3022" height="3000">
<path d="M0 0 C1.42653715 0.00010237 1.42653715 0.00010237 2.88189323 0.00020682 C20.20701131 0.00145454 37.53212938 0.00275346 54.85724744 0.00411886 C115.29394413 0.00887192 175.73063884 0.00803207 236.16733551 0.00343704 C252.2885348 0.00221502 268.40973409 0.00100372 284.53093338 -0.00013542 C286.02170171 -0.00024109 286.02170171 -0.00024109 287.54258656 -0.0003489 C318.10698274 -0.00250027 348.67137874 -0.0034208 379.23577499 -0.002985 C380.1919895 -0.00297142 381.14820401 -0.00295783 382.13339472 -0.00294384 C403.09015434 -0.00263181 424.04691394 -0.00199891 445.00367355 -0.0010745 C452.48327896 -0.00074568 459.96288437 -0.00043258 467.44248978 -0.00012379 C469.30056015 -0.00004641 471.15863053 0.00003232 473.0167009 0.00011241 C502.36740295 0.00137443 531.71810406 -0.00002165 561.06880598 -0.00273774 C591.01896198 -0.00547987 620.96911581 -0.0045096 650.9192715 0.00079356 C654.11747298 0.0013458 657.31567447 0.00188251 660.51387596 0.00240707 C661.29846429 0.00253728 662.08305262 0.00266749 662.89141636 0.00280164 C675.33387629 0.0047772 687.77633351 0.00339782 700.2187932 0.00063807 C712.41600249 -0.00199677 724.61320717 -0.00109802 736.81041588 0.00365216 C743.33086987 0.00609461 749.85131561 0.00681593 756.37176952 0.00324617 C762.2840148 0.00004137 768.19624037 0.00135078 774.10848419 0.00642683 C776.24386415 0.00744228 778.3792457 0.00674647 780.51462441 0.0042209 C783.39270226 0.00105529 786.27070992 0.00394532 789.1487844 0.00845897 C789.98637282 0.00606823 790.82396125 0.00367749 791.68693114 0.0012143 C794.96443877 0.01179562 797.60827609 0.08987036 800.74008942 1.13380814 C800.74008942 141.05380814 800.74008942 280.97380814 800.74008942 425.13380814 C798.32007519 426.34381525 796.82985913 426.2481341 794.12631989 426.23146439 C763.8661673 426.05569567 733.61743182 426.10988552 703.3593624 426.51911654 C656.8152691 427.147028 610.27750517 427.27530129 563.72980138 427.25141866 C552.73095444 427.24600301 541.73210948 427.24676722 530.73326153 427.2475556 C510.45802446 427.24884966 490.18279073 427.2456055 469.90755463 427.23953819 C449.90679152 427.23356871 429.9060298 427.22976183 409.90526581 427.22868538 C408.02197609 427.22858227 408.02197609 427.22858227 406.10064011 427.22847708 C399.7213876 427.22813862 393.34213509 427.22783729 386.96288258 427.2275502 C342.0777449 427.225464 297.19260883 427.21876776 252.30747223 427.20924759 C241.49037425 427.20695536 230.67327628 427.20467974 219.85617828 427.20247269 C219.18505015 427.20233574 218.51392202 427.20219879 217.82245667 427.20205769 C186.46276847 427.19568131 155.10308012 427.19197768 123.74339144 427.18893789 C121.70064484 427.18873983 119.65789824 427.18854064 117.61515164 427.18834121 C104.07466425 427.18702112 90.53417686 427.18574652 76.99368946 427.18450235 C49.42368245 427.18196867 21.85367548 427.17914663 -5.71633148 427.17615128 C-6.98324489 427.17601399 -8.25015829 427.1758767 -9.55546301 427.17573525 C-48.2947143 427.17152215 -87.03396529 427.16609661 -125.77321625 427.15945816 C-126.87050471 427.1592706 -127.96779318 427.15908304 -129.09833281 427.1588898 C-173.48552554 427.15128424 -217.87271803 427.14238371 -262.25991058 427.13380814 C-262.25991058 525.47380814 -262.25991058 623.81380814 -262.25991058 725.13380814 C263.92508942 725.62880814 263.92508942 725.62880814 800.74008942 726.13380814 C800.74008942 838.00380814 800.74008942 949.87380814 800.74008942 1065.13380814 C274.55508942 1065.62880814 274.55508942 1065.62880814 -262.25991058 1066.13380814 C-262.25991058 1493.48380814 -262.25991058 1920.83380814 -262.25991058 2361.13380814 C-363.3306229 2411.6691643 -488.25941894 2362.13380814 -601.25991058 2362.13380814 C-601.25991058 1934.12380814 -601.25991058 1506.11380814 -601.25991058 1065.13380814 C-704.21991058 1065.13380814 -807.17991058 1065.13380814 -913.25991058 1065.13380814 C-913.25205536 1124.01548416 -913.25205536 1124.01548416 -913.24404144 1184.086689 C-913.23755462 1234.84012156 -913.23755462 1234.84012156 -913.23482892 1257.89764818 C-913.23454099 1260.33256746 -913.23425302 1262.76748674 -913.23396434 1265.20240602 C-913.22722472 1322.05539955 -913.22185233 1378.90839311 -913.21756744 1435.76138687 C-913.21742799 1437.60672202 -913.21728854 1439.45205717 -913.21714909 1441.29739232 C-913.21422662 1480.02855657 -913.21150988 1518.75972082 -913.20903091 1557.4908851 C-913.20778548 1576.94584459 -913.2065005 1596.40080408 -913.20517814 1615.85576357 C-913.20497889 1618.79053328 -913.20478078 1621.72530299 -913.2045827 1624.6600727 C-913.20152149 1669.8696408 -913.19761036 1715.07920863 -913.19124603 1760.2887764 C-913.19110913 1761.26136528 -913.19097224 1762.23395417 -913.19083119 1763.23601545 C-913.18861872 1778.91776091 -913.18633515 1794.59950637 -913.18404214 1810.28125182 C-913.1774414 1855.43076851 -913.1713635 1900.580285 -913.16877079 1945.72980213 C-913.16869049 1947.12149685 -913.16869049 1947.12149685 -913.16860856 1948.54130661 C-913.167443 1968.90509542 -913.16654805 1989.26888424 -913.1659096 2009.63267307 C-913.16564797 2017.82546539 -913.16534735 2026.01825771 -913.16503334 2034.21105003 C-913.16499991 2035.10773446 -913.16496649 2036.0044189 -913.16493205 2036.92827558 C-913.1638343 2065.85463212 -913.15955881 2094.78098712 -913.15362838 2123.70734304 C-913.14767247 2152.82848885 -913.14480889 2181.94963318 -913.1462866 2211.07077962 C-913.1464897 2215.08866298 -913.14665707 2219.10654634 -913.1468029 2223.1244297 C-913.14683278 2223.9120974 -913.14686266 2224.6997651 -913.14689345 2225.51130151 C-913.14727513 2238.0185624 -913.14428062 2250.52582015 -913.13990072 2263.03308018 C-913.13566983 2275.31075924 -913.13496005 2287.58843421 -913.13807877 2299.86611365 C-913.13965046 2306.4425695 -913.13948015 2313.0190169 -913.1350274 2319.59547185 C-913.13101665 2325.56398975 -913.13150544 2331.53248873 -913.13577061 2337.50100629 C-913.13649193 2339.66046828 -913.13549344 2341.8199316 -913.13267534 2343.97939186 C-913.12911895 2346.8861583 -913.13158996 2349.79285561 -913.13571209 2352.69961971 C-913.13320321 2353.55150308 -913.13069433 2354.40338646 -913.12810943 2355.28108448 C-913.14575557 2361.01965312 -913.14575557 2361.01965312 -914.25991058 2362.13380814 C-1054.50991058 2362.13380814 -1194.75991058 2362.13380814 -1339.25991058 2362.13380814 C-1339.25991058 1621.28380814 -1339.25991058 880.43380814 -1339.25991058 117.13380814 C-1338.59991058 117.13380814 -1337.93991058 117.13380814 -1337.25991058 117.13380814 C-1337.28311371 116.06001907 -1337.30631683 114.98623001 -1337.33022308 113.87990189 C-1337.34899682 112.44371098 -1337.36719529 111.00751248 -1337.38491058 109.57130814 C-1337.4016684 108.86683548 -1337.41842621 108.16236282 -1337.43569183 107.43654251 C-1337.48013103 102.61488992 -1336.78759062 98.71083376 -1335.25991058 94.13380814 C-1334.59991058 94.13380814 -1333.93991058 94.13380814 -1333.25991058 94.13380814 C-1333.25991058 91.82380814 -1333.25991058 89.51380814 -1333.25991058 87.13380814 C-1332.59991058 87.13380814 -1331.93991058 87.13380814 -1331.25991058 87.13380814 C-1331.25991058 85.15380814 -1331.25991058 83.17380814 -1331.25991058 81.13380814 C-1330.59991058 81.13380814 -1329.93991058 81.13380814 -1329.25991058 81.13380814 C-1329.25991058 79.81380814 -1329.25991058 78.49380814 -1329.25991058 77.13380814 C-1328.59991058 77.13380814 -1327.93991058 77.13380814 -1327.25991058 77.13380814 C-1327.25991058 75.81380814 -1327.25991058 74.49380814 -1327.25991058 73.13380814 C-1326.59991058 73.13380814 -1325.93991058 73.13380814 -1325.25991058 73.13380814 C-1324.92991058 71.15380814 -1324.59991058 69.17380814 -1324.25991058 67.13380814 C-1323.59991058 67.13380814 -1322.93991058 67.13380814 -1322.25991058 67.13380814 C-1322.25991058 66.14380814 -1322.25991058 65.15380814 -1322.25991058 64.13380814 C-1321.59991058 64.13380814 -1320.93991058 64.13380814 -1320.25991058 64.13380814 C-1320.25991058 62.81380814 -1320.25991058 61.49380814 -1320.25991058 60.13380814 C-1319.59991058 60.13380814 -1318.93991058 60.13380814 -1318.25991058 60.13380814 C-1318.25991058 58.81380814 -1318.25991058 57.49380814 -1318.25991058 56.13380814 C-1317.59991058 56.13380814 -1316.93991058 56.13380814 -1316.25991058 56.13380814 C-1316.25991058 55.47380814 -1316.25991058 54.81380814 -1316.25991058 54.13380814 C-1315.59991058 54.13380814 -1314.93991058 54.13380814 -1314.25991058 54.13380814 C-1314.25991058 53.14380814 -1314.25991058 52.15380814 -1314.25991058 51.13380814 C-1313.59991058 51.13380814 -1312.93991058 51.13380814 -1312.25991058 51.13380814 C-1311.99178558 50.37068314 -1311.72366058 49.60755814 -1311.44741058 48.82130814 C-1310.30856553 46.24392196 -1309.44574388 44.86425949 -1307.25991058 43.13380814 C-1306.59991058 43.13380814 -1305.93991058 43.13380814 -1305.25991058 43.13380814 C-1305.25991058 42.47380814 -1305.25991058 41.81380814 -1305.25991058 41.13380814 C-1304.59991058 41.13380814 -1303.93991058 41.13380814 -1303.25991058 41.13380814 C-1303.25991058 40.47380814 -1303.25991058 39.81380814 -1303.25991058 39.13380814 C-1302.59991058 39.13380814 -1301.93991058 39.13380814 -1301.25991058 39.13380814 C-1301.25991058 38.47380814 -1301.25991058 37.81380814 -1301.25991058 37.13380814 C-1300.59991058 37.13380814 -1299.93991058 37.13380814 -1299.25991058 37.13380814 C-1299.25991058 36.14380814 -1299.25991058 35.15380814 -1299.25991058 34.13380814 C-1298.59991058 34.13380814 -1297.93991058 34.13380814 -1297.25991058 34.13380814 C-1297.25991058 33.47380814 -1297.25991058 32.81380814 -1297.25991058 32.13380814 C-1293.85338187 28.92766346 -1290.74590801 27.3857144 -1286.25991058 26.13380814 C-1286.25991058 25.47380814 -1286.25991058 24.81380814 -1286.25991058 24.13380814 C-1285.59991058 24.13380814 -1284.93991058 24.13380814 -1284.25991058 24.13380814 C-1284.25991058 23.47380814 -1284.25991058 22.81380814 -1284.25991058 22.13380814 C-1282.93991058 22.13380814 -1281.61991058 22.13380814 -1280.25991058 22.13380814 C-1280.25991058 21.47380814 -1280.25991058 20.81380814 -1280.25991058 20.13380814 C-1278.93991058 20.13380814 -1277.61991058 20.13380814 -1276.25991058 20.13380814 C-1275.76491058 18.64880814 -1275.76491058 18.64880814 -1275.25991058 17.13380814 C-1272.67787933 15.59865189 -1272.67787933 15.59865189 -1269.44741058 14.07130814 C-1267.85993011 13.31140579 -1267.85993011 13.31140579 -1266.24037933 12.53615189 C-1265.25682465 12.07337845 -1264.27326996 11.61060501 -1263.25991058 11.13380814 C-1262.16356293 10.55179642 -1262.16356293 10.55179642 -1261.04506683 9.95802689 C-1258.71641264 8.88287145 -1256.79162368 8.99315741 -1254.25991058 9.13380814 C-1254.25991058 8.47380814 -1254.25991058 7.81380814 -1254.25991058 7.13380814 C-1252.27991058 7.13380814 -1250.29991058 7.13380814 -1248.25991058 7.13380814 C-1248.25991058 6.47380814 -1248.25991058 5.81380814 -1248.25991058 5.13380814 C-1246.20912933 4.90594355 -1244.15834808 4.67807897 -1242.10756683 4.45021439 C-1240.2485083 4.314942 -1240.2485083 4.314942 -1239.25991058 3.13380814 C-1236.68093365 2.81143602 -1234.10059237 2.6211351 -1231.50991058 2.41505814 C-1229.29325706 2.37180148 -1229.29325706 2.37180148 -1228.25991058 1.13380814 C-1225.61165505 1.02981538 -1222.98924312 0.99198368 -1220.34027457 0.9954921 C-1219.49441913 0.99268733 -1218.64856369 0.98988257 -1217.77707627 0.98699281 C-1214.89875428 0.97870064 -1212.02047253 0.97762422 -1209.14213943 0.97643089 C-1207.06466157 0.97195549 -1204.98718461 0.96704463 -1202.90970871 0.96173452 C-1197.14045692 0.94829462 -1191.37121133 0.9411834 -1185.60194779 0.93503181 C-1179.33430588 0.92727791 -1173.06667589 0.91380514 -1166.79904246 0.90108025 C-1155.04279463 0.87811143 -1143.28654577 0.8598197 -1131.5302868 0.8437151 C-1120.38646777 0.82842098 -1109.24265437 0.81097235 -1098.09884167 0.79160833 C-1097.3490979 0.79030849 -1096.59935413 0.78900864 -1095.82689086 0.7876694 C-1092.77161774 0.7823713 -1089.71634463 0.7770669 -1086.66107155 0.77175202 C-1054.53808019 0.71593582 -1022.41507951 0.668231 -990.2920711 0.62344292 C-986.80300601 0.61857745 -983.31394092 0.61371044 -979.82487583 0.60884237 C-978.52443279 0.60702947 -978.52443279 0.60702947 -977.19771818 0.60517994 C-959.59919397 0.58061847 -942.00067256 0.55430993 -924.4021513 0.52772978 C-830.97989897 0.38665013 -737.5576249 0.26388362 0 0 Z M-602.25991058 425.13380814 C-602.58991058 425.46380814 -602.91991058 425.79380814 -603.25991058 426.13380814 C-604.65524714 426.22942676 -606.05540582 426.25569148 -607.45401382 426.25406265 C-608.81917432 426.25612418 -608.81917432 426.25612418 -610.21191382 426.25822735 C-611.22345283 426.25463239 -612.23499183 426.25103743 -613.27718353 426.24733353 C-614.34283987 426.24748239 -615.40849621 426.24763124 -616.50644517 426.24778461 C-620.10755476 426.24708548 -623.70861446 426.23922205 -627.30971527 426.23146439 C-629.8798698 426.22954679 -632.45002471 426.22808225 -635.02017975 426.22703934 C-640.57173297 426.2241463 -646.12327297 426.21769594 -651.67481995 426.20897293 C-659.71566356 426.19643253 -667.75650224 426.19034488 -675.79735401 426.18603957 C-688.86056034 426.17896288 -701.92376052 426.16815679 -714.98696136 426.15431595 C-715.76951751 426.15348814 -716.55207366 426.15266032 -717.35834363 426.15180743 C-723.70141173 426.14506909 -730.04447962 426.13815031 -736.38754749 426.13120461 C-741.91450047 426.12515648 -747.44145351 426.11917421 -752.96840668 426.11330032 C-753.74637355 426.1124722 -754.52434042 426.11164407 -755.32588205 426.11079085 C-768.32450731 426.09707679 -781.32313268 426.08733127 -794.32176328 426.08038998 C-802.33466826 426.07592032 -810.34755464 426.06790409 -818.36045095 426.05524516 C-824.515042 426.04577723 -830.66962687 426.04146611 -836.82422447 426.03899384 C-839.34080636 426.03712801 -841.85738769 426.03353947 -844.37396431 426.02806091 C-861.84394824 425.92578629 -861.84394824 425.92578629 -879.25991058 427.13380814 C-879.25991058 427.79380814 -879.25991058 428.45380814 -879.25991058 429.13380814 C-879.91991058 429.05130814 -880.57991058 428.96880814 -881.25991058 428.88380814 C-885.47234753 429.23484455 -888.60701735 431.10341587 -892.25991058 433.13380814 C-892.25991058 433.79380814 -892.25991058 434.45380814 -892.25991058 435.13380814 C-893.14678558 435.34005814 -894.03366058 435.54630814 -894.94741058 435.75880814 C-899.19497033 437.52194614 -900.49122424 439.5191343 -903.25991058 443.13380814 C-903.91991058 443.46380814 -904.57991058 443.79380814 -905.25991058 444.13380814 C-905.25991058 445.45380814 -905.25991058 446.77380814 -905.25991058 448.13380814 C-905.91991058 448.13380814 -906.57991058 448.13380814 -907.25991058 448.13380814 C-907.25991058 449.45380814 -907.25991058 450.77380814 -907.25991058 452.13380814 C-907.91991058 452.13380814 -908.57991058 452.13380814 -909.25991058 452.13380814 C-909.25991058 453.45380814 -909.25991058 454.77380814 -909.25991058 456.13380814 C-909.91991058 456.13380814 -910.57991058 456.13380814 -911.25991058 456.13380814 C-911.25991058 458.11380814 -911.25991058 460.09380814 -911.25991058 462.13380814 C-911.91991058 462.13380814 -912.57991058 462.13380814 -913.25991058 462.13380814 C-913.25991058 549.25380814 -913.25991058 636.37380814 -913.25991058 726.13380814 C-810.29991058 726.13380814 -707.33991058 726.13380814 -601.25991058 726.13380814 C-601.25991058 626.80380814 -601.25991058 527.47380814 -601.25991058 425.13380814 C-601.58991058 425.13380814 -601.91991058 425.13380814 -602.25991058 425.13380814 Z " fill="#FEFEFE" transform="translate(1636.259910583496,317.8661918640137)"/>
<path d="M0 0 C0 3.66448426 -0.90580485 4.54568899 -3 7.5 C-17.2339348 29.3272915 -21.33548228 54.75152402 -21.25480902 80.3501215 C-21.25724943 81.94200845 -21.26056362 83.53389425 -21.26465932 85.12577781 C-21.27335541 89.47860459 -21.26975138 93.83134506 -21.264044 98.18417352 C-21.26003371 102.94548743 -21.26769418 107.70678561 -21.27382231 112.4680953 C-21.28299872 120.83771634 -21.28477917 129.20731361 -21.28172119 137.57693875 C-21.27718326 150.10635175 -21.28419744 162.63574031 -21.29345289 175.16514977 C-21.30889365 196.51950383 -21.31490044 217.87385124 -21.31578636 239.22821045 C-21.31672274 260.86846251 -21.32199183 282.50870678 -21.33261681 304.1489563 C-21.3329501 304.83173171 -21.33328339 305.51450713 -21.33362677 306.2179727 C-21.33668277 312.47524653 -21.33978731 318.73252033 -21.34294968 324.98979411 C-21.35087684 340.67954059 -21.35814538 356.36928735 -21.36497664 372.05903435 C-21.36529012 372.77795048 -21.3656036 373.49686662 -21.36592657 374.23756809 C-21.38131727 409.66856021 -21.38922834 445.09955357 -21.39665604 480.5305481 C-21.3992756 493.00152208 -21.40193073 505.47249605 -21.40471697 517.94347 C-21.40489015 518.71872068 -21.40506333 519.49397136 -21.40524176 520.29271448 C-21.41330975 556.2143346 -21.42649537 592.13595228 -21.4409893 628.05757031 C-21.44193712 630.40729752 -21.44288255 632.75702474 -21.44382735 635.10675195 C-21.44952684 649.27575964 -21.45527961 663.44476732 -21.46109388 677.61377497 C-21.47554538 712.836831 -21.48935793 748.05988727 -21.50273705 783.28294373 C-21.50304193 784.08478636 -21.50334682 784.886629 -21.50366095 785.7127699 C-21.52340022 837.63961304 -21.54050921 889.56645665 -21.5554142 941.49330139 C-21.55565216 942.32225247 -21.55589013 943.15120356 -21.5561353 944.00527437 C-21.56337338 969.23877285 -21.57041667 994.47227139 -21.57742186 1019.70576994 C-21.58517481 1047.629693 -21.59296099 1075.55361605 -21.60089111 1103.47753906 C-21.60112947 1104.31723057 -21.60136782 1105.15692207 -21.60161339 1106.02205878 C-21.62426586 1185.78572914 -21.65228184 1265.54939734 -21.68168322 1345.31306547 C-21.68292829 1348.69191113 -21.68417181 1352.07075679 -21.68541526 1355.44960246 C-21.69685801 1386.54265494 -21.70836368 1417.6357074 -21.71994839 1448.72875983 C-21.72025643 1449.55555789 -21.72056448 1450.38235596 -21.72088186 1451.23420852 C-21.72181455 1453.73753081 -21.72274727 1456.2408531 -21.72367998 1458.74417539 C-21.74887694 1526.37124499 -21.77352507 1593.99831478 -21.79781758 1661.6253847 C-21.79867482 1664.01143092 -21.79953248 1666.39747715 -21.80039027 1668.78352337 C-21.82826054 1746.31327539 -21.85515928 1823.84302765 -21.8981703 1960.74274488 C-21.89882396 1962.85380334 -21.89947816 1964.9648618 -21.90013256 1967.07592026 C-21.90034674 1967.7669438 -21.90056092 1968.45796734 -21.90078159 1969.16993098 C-21.90135816 1971.03008785 -21.90193479 1972.89024471 -21.90251143 1974.75040157 C-21.93645928 2084.50026728 -21.96790482 2194.25013374 -22 2304 C116.27 2304 254.54 2304 397 2304 C397 2304.33 397 2304.66 397 2305 C257.74 2305.33 118.48 2305.66 -25 2306 C-25 1565.15 -25 824.3 -25 61 C-24.34 61 -23.68 61 -23 61 C-23.02320313 59.92621094 -23.04640625 58.85242188 -23.0703125 57.74609375 C-23.08908624 56.30990285 -23.1072847 54.87370435 -23.125 53.4375 C-23.14175781 52.73302734 -23.15851563 52.02855469 -23.17578125 51.30273438 C-23.22022044 46.48108178 -22.52768004 42.57702562 -21 38 C-20.34 38 -19.68 38 -19 38 C-19 35.69 -19 33.38 -19 31 C-18.34 31 -17.68 31 -17 31 C-17 29.02 -17 27.04 -17 25 C-16.34 25 -15.68 25 -15 25 C-15 23.68 -15 22.36 -15 21 C-14.34 21 -13.68 21 -13 21 C-13 19.68 -13 18.36 -13 17 C-12.34 17 -11.68 17 -11 17 C-10.67 15.02 -10.34 13.04 -10 11 C-9.34 11 -8.68 11 -8 11 C-8 10.01 -8 9.02 -8 8 C-7.34 8 -6.68 8 -6 8 C-6 6.68 -6 5.36 -6 4 C-5.38125 3.71125 -4.7625 3.4225 -4.125 3.125 C-1.86674235 2.06279958 -1.86674235 2.06279958 0 0 Z " fill="#F7F7F7" transform="translate(322,374)"/>
<path d="M0 0 C0.95102454 0.00006847 1.90204908 0.00013695 2.88189255 0.0002075 C19.24335702 0.00138978 35.60482148 0.00261633 51.96628594 0.00390707 C113.3666314 0.00875007 174.76697479 0.0081206 236.16732025 0.0034523 C252.28851954 0.00223028 268.40971883 0.00101898 284.53091812 -0.00012016 C286.02168645 -0.00022584 286.02168645 -0.00022584 287.5425713 -0.00033364 C318.10696748 -0.00248501 348.67136348 -0.00340554 379.23575974 -0.00296974 C380.19197425 -0.00295616 381.14818876 -0.00294257 382.13337946 -0.00292858 C403.09013908 -0.00261655 424.04689869 -0.00198365 445.00365829 -0.00105924 C452.4832637 -0.00073042 459.96286911 -0.00041733 467.44247452 -0.00010853 C469.30054489 -0.00003115 471.15861527 0.00004758 473.01668564 0.00012767 C502.36738769 0.00138969 531.7180888 -0.0000064 561.06879072 -0.00272248 C591.01894672 -0.00546461 620.96910055 -0.00449434 650.91925624 0.00080882 C654.11745773 0.00136106 657.31565921 0.00189777 660.5138607 0.00242233 C661.29844903 0.00255254 662.08303736 0.00268275 662.8914011 0.0028169 C675.33386103 0.00479246 687.77631825 0.00341308 700.21877794 0.00065333 C712.41598723 -0.00198151 724.61319192 -0.00108276 736.81040062 0.00366741 C743.33085461 0.00610987 749.85130036 0.00683118 756.37175426 0.00326143 C762.28399954 0.00005663 768.19622511 0.00136604 774.10846893 0.00644209 C776.24384889 0.00745754 778.37923044 0.00676173 780.51460915 0.00423615 C783.392687 0.00107055 786.27069466 0.00396058 789.14876914 0.00847423 C789.98635756 0.00608349 790.82394599 0.00369275 791.68691588 0.00122956 C794.96442351 0.01181088 797.60826083 0.08988562 800.74007416 1.13382339 C800.74007416 140.39382339 800.74007416 279.65382339 800.74007416 423.13382339 C800.41007416 423.13382339 800.08007416 423.13382339 799.74007416 423.13382339 C799.74007416 284.86382339 799.74007416 146.59382339 799.74007416 4.13382339 C649.41130132 4.16911728 649.41130132 4.16911728 499.0825292 4.20733528 C495.28429581 4.2083505 491.48606241 4.20936561 487.68782902 4.21037861 C417.53729559 4.22908944 347.38676293 4.24960631 223.72977231 4.29205123 C221.5723583 4.29280535 219.4149443 4.29355883 217.2575303 4.29431211 C156.12476705 4.31565815 94.99200401 4.3375848 33.85924125 4.3602888 C31.59658407 4.36112913 29.33392688 4.36196941 27.07126969 4.36280968 C26.32395375 4.36308721 25.57663781 4.36336474 24.80667593 4.36365068 C-3.29323838 4.37408464 -31.39315274 4.38438595 -59.49306713 4.39460808 C-62.54615813 4.39571886 -65.59924914 4.39683115 -68.65234014 4.39794481 C-140.71593144 4.42422994 -212.7795224 4.44813135 -284.84311676 4.46426773 C-285.60156665 4.46443773 -286.36001654 4.46460773 -287.14144976 4.46478288 C-312.36315632 4.4704323 -337.58486294 4.47585015 -362.80656956 4.48123606 C-385.59544693 4.48610317 -408.38432427 4.49105343 -431.17320156 4.49627781 C-431.9218369 4.4964494 -432.67047224 4.49662099 -433.44179349 4.49679778 C-480.3294149 4.50756643 -527.21703417 4.52193753 -574.10465336 4.53994656 C-574.82886756 4.54022424 -575.55308175 4.54050193 -576.29924183 4.54078803 C-608.10577307 4.55298654 -639.91230395 4.56593606 -671.71883452 4.57974426 C-684.51506651 4.58529602 -697.31129854 4.59073655 -710.10753059 4.59611617 C-712.22923218 4.59700907 -714.35093377 4.59790558 -716.47263536 4.59880248 C-748.92567179 4.61249542 -781.37870666 4.62370784 -813.83174586 4.62771249 C-814.88149382 4.62784208 -814.88149382 4.62784208 -815.95244881 4.62797429 C-827.21018773 4.62934889 -838.46792668 4.63051651 -849.72566562 4.63164842 C-895.86647622 4.63628778 -942.00727111 4.64997013 -988.14807517 4.67724973 C-994.42557461 4.68095881 -1000.70307411 4.68456108 -1006.98057365 4.68809891 C-1008.21115796 4.68879629 -1009.44174228 4.68949368 -1010.70961702 4.6902122 C-1030.20657787 4.70098449 -1049.7035256 4.70168273 -1069.20048856 4.6981914 C-1088.36552318 4.69496609 -1107.53052907 4.70237656 -1126.69555504 4.7211475 C-1137.93558535 4.73183442 -1149.17554532 4.73431217 -1160.415577 4.72468886 C-1167.88041633 4.71911404 -1175.34519708 4.72439217 -1182.81002504 4.73849341 C-1187.04176314 4.74618304 -1191.27335875 4.74927623 -1195.50509458 4.7389794 C-1214.96101031 4.69530967 -1233.14132681 4.97086981 -1251.72086334 11.46194839 C-1254.25992584 12.13382339 -1254.25992584 12.13382339 -1257.25992584 11.13382339 C-1248.07147723 7.30652048 -1239.30519063 4.13382339 -1229.25992584 4.13382339 C-1228.92992584 3.14382339 -1228.59992584 2.15382339 -1228.25992584 1.13382339 C-1143.71804554 0.96813048 -1059.17614701 0.81282897 0 0 Z " fill="#EAEAEA" transform="translate(1636.2599258422852,317.8661766052246)"/>
<path d="M0 0 C104.61 0 209.22 0 317 0 C317 428.34 317 856.68 317 1298 C427.22 1298 537.44 1298 651 1298 C651 1298.33 651 1298.66 651 1299 C541.17447792 1320.96510442 427.00049603 1300 315 1300 C315 871.33 315 442.66 315 1 C211.05 1 107.1 1 0 1 C0 0.67 0 0.34 0 0 Z " fill="#D5D5D4" transform="translate(720,1380)"/>
<path d="M0 0 C0 3.66448426 -0.90580485 4.54568899 -3 7.5 C-17.2339348 29.3272915 -21.33548228 54.75152402 -21.25480902 80.3501215 C-21.25724943 81.94200845 -21.26056362 83.53389425 -21.26465932 85.12577781 C-21.27335541 89.47860459 -21.26975138 93.83134506 -21.264044 98.18417352 C-21.26003371 102.94548743 -21.26769418 107.70678561 -21.27382231 112.4680953 C-21.28299872 120.83771634 -21.28477917 129.20731361 -21.28172119 137.57693875 C-21.27718326 150.10635175 -21.28419744 162.63574031 -21.29345289 175.16514977 C-21.30889365 196.51950383 -21.31490044 217.87385124 -21.31578636 239.22821045 C-21.31672274 260.86846251 -21.32199183 282.50870678 -21.33261681 304.1489563 C-21.3329501 304.83173171 -21.33328339 305.51450713 -21.33362677 306.2179727 C-21.33668277 312.47524653 -21.33978731 318.73252033 -21.34294968 324.98979411 C-21.35087684 340.67954059 -21.35814538 356.36928735 -21.36497664 372.05903435 C-21.36529012 372.77795048 -21.3656036 373.49686662 -21.36592657 374.23756809 C-21.38131727 409.66856021 -21.38922834 445.09955357 -21.39665604 480.5305481 C-21.3992756 493.00152208 -21.40193073 505.47249605 -21.40471697 517.94347 C-21.40497674 519.10634602 -21.40497674 519.10634602 -21.40524176 520.29271448 C-21.41330975 556.2143346 -21.42649537 592.13595228 -21.4409893 628.05757031 C-21.44193712 630.40729752 -21.44288255 632.75702474 -21.44382735 635.10675195 C-21.44952684 649.27575964 -21.45527961 663.44476732 -21.46109388 677.61377497 C-21.47554538 712.836831 -21.48935793 748.05988727 -21.50273705 783.28294373 C-21.50304193 784.08478636 -21.50334682 784.886629 -21.50366095 785.7127699 C-21.52340022 837.63961304 -21.54050921 889.56645665 -21.5554142 941.49330139 C-21.55565216 942.32225247 -21.55589013 943.15120356 -21.5561353 944.00527437 C-21.56337338 969.23877285 -21.57041667 994.47227139 -21.57742186 1019.70576994 C-21.58517481 1047.629693 -21.59296099 1075.55361605 -21.60089111 1103.47753906 C-21.60112947 1104.31723057 -21.60136782 1105.15692207 -21.60161339 1106.02205878 C-21.62426586 1185.78572914 -21.65228184 1265.54939734 -21.68168322 1345.31306547 C-21.68292829 1348.69191113 -21.68417181 1352.07075679 -21.68541526 1355.44960246 C-21.69685801 1386.54265494 -21.70836368 1417.6357074 -21.71994839 1448.72875983 C-21.72025643 1449.55555789 -21.72056448 1450.38235596 -21.72088186 1451.23420852 C-21.72181455 1453.73753081 -21.72274727 1456.2408531 -21.72367998 1458.74417539 C-21.74887694 1526.37124499 -21.77352507 1593.99831478 -21.79781758 1661.6253847 C-21.79867482 1664.01143092 -21.79953248 1666.39747715 -21.80039027 1668.78352337 C-21.82824727 1746.276356 -21.85511597 1823.76918887 -21.93994141 2098.62890625 C-21.94014129 2099.29966324 -21.94034117 2099.97042024 -21.94054711 2100.6615032 C-21.96074435 2168.44100202 -21.98059483 2236.22050095 -22 2304 C-22.33 2304 -22.66 2304 -23 2304 C-23.01100159 2235.52408861 -23.02154075 2167.04817714 -23.03173828 2098.57226562 C-23.0318381 2097.90218945 -23.03193791 2097.23211327 -23.03204076 2096.54173176 C-23.04278233 2024.42589796 -23.05308027 1952.31006408 -23.08447801 1666.16739511 C-23.08468645 1663.778151 -23.08489533 1661.38890689 -23.08510434 1658.99966278 C-23.09102628 1591.29663054 -23.09655995 1523.59359826 -23.10157386 1455.89056594 C-23.10175943 1453.38468327 -23.10194504 1450.87880059 -23.10213066 1448.37291792 C-23.10219196 1447.54526887 -23.10225326 1446.71761982 -23.10231642 1445.8648905 C-23.10462246 1414.74456271 -23.1070172 1383.62423492 -23.10946488 1352.50390713 C-23.10973074 1349.12265987 -23.10999558 1345.7414126 -23.11025951 1342.36016534 C-23.11648933 1262.55810292 -23.12431221 1182.75604112 -23.1373291 1102.95397949 C-23.13746597 1102.11419259 -23.13760284 1101.27440569 -23.13774386 1100.4091707 C-23.14229782 1072.4829518 -23.14700667 1044.55673291 -23.15173688 1016.63051403 C-23.15601037 991.39789448 -23.16022824 966.16527492 -23.16426277 940.93265533 C-23.16439533 940.10372896 -23.1645279 939.27480258 -23.16466448 938.42075722 C-23.17295346 886.49816394 -23.17883249 834.57557081 -23.18227959 782.65297699 C-23.18233315 781.85089793 -23.18238672 781.04881887 -23.18244191 780.22243438 C-23.18479271 744.99481699 -23.18664128 709.7671996 -23.1879158 674.53958216 C-23.18843089 660.36659432 -23.18902035 646.19360649 -23.18965055 632.02061866 C-23.18975442 629.67065795 -23.18985588 627.32069724 -23.18995707 624.97073652 C-23.19152193 589.03331694 -23.19474354 553.09589847 -23.20278788 517.15847969 C-23.20296128 516.38371871 -23.20313467 515.60895772 -23.20331333 514.81071913 C-23.2061128 502.34793145 -23.20905071 489.88514381 -23.21201252 477.42235617 C-23.2204235 442.03007699 -23.22789688 406.63779899 -23.22826552 371.24551868 C-23.22827347 370.52693866 -23.22828142 369.80835863 -23.22828961 369.06800345 C-23.22844323 353.38838248 -23.22805056 337.70876157 -23.22712379 322.02914063 C-23.22676294 315.7749673 -23.22647689 309.52079397 -23.22621536 303.26662064 C-23.22618489 302.58440523 -23.22615442 301.90218983 -23.22612302 301.19930123 C-23.22516518 278.92647431 -23.23096158 256.65365577 -23.24001972 234.38083081 C-23.24851381 213.15472818 -23.24987679 191.92863503 -23.24366363 170.70253151 C-23.24023619 158.25943544 -23.24227258 145.81636942 -23.252434 133.37327686 C-23.25863984 125.10285861 -23.2575499 116.83246178 -23.25060215 108.56204418 C-23.24686949 103.87788114 -23.24615689 99.19377647 -23.25447049 94.509618 C-23.28607828 75.56803367 -23.06552182 56.85738721 -21 38 C-20.34 38 -19.68 38 -19 38 C-19 35.69 -19 33.38 -19 31 C-18.34 31 -17.68 31 -17 31 C-17 29.02 -17 27.04 -17 25 C-16.34 25 -15.68 25 -15 25 C-15 23.68 -15 22.36 -15 21 C-14.34 21 -13.68 21 -13 21 C-13 19.68 -13 18.36 -13 17 C-12.34 17 -11.68 17 -11 17 C-10.67 15.02 -10.34 13.04 -10 11 C-9.34 11 -8.68 11 -8 11 C-8 10.01 -8 9.02 -8 8 C-7.34 8 -6.68 8 -6 8 C-6 6.68 -6 5.36 -6 4 C-5.38125 3.71125 -4.7625 3.4225 -4.125 3.125 C-1.86674235 2.06279958 -1.86674235 2.06279958 0 0 Z " fill="#C6C6C7" transform="translate(322,374)"/>
<path d="M0 0 C0 3.66448426 -0.90580485 4.54568899 -3 7.5 C-20.00810885 33.58140018 -21.30482714 62.95451212 -21.31667423 93.07989264 C-21.32040514 97.01968365 -21.3355784 100.95943381 -21.34928894 104.89920044 C-21.37145091 111.70771852 -21.38653033 118.51622185 -21.39665604 125.32476807 C-21.41130616 135.16850632 -21.43686029 145.01219313 -21.46498732 154.855901 C-21.5103409 170.83067813 -21.5470027 186.80546271 -21.578125 202.78027344 C-21.60835756 218.28875027 -21.64272929 233.79720893 -21.68261719 249.30566406 C-21.68507874 250.26327306 -21.68754028 251.22088206 -21.69007643 252.20750952 C-21.70245194 257.01205049 -21.7149083 261.81659124 -21.72740483 266.6211319 C-21.83080123 306.41406269 -21.92006072 346.20701557 -22 386 C-22.33 386 -22.66 386 -23 386 C-23.04588023 345.1328432 -23.08107121 304.26568979 -23.10213066 263.39851233 C-23.10463177 258.56254985 -23.10722044 253.72658741 -23.10986328 248.890625 C-23.1103879 247.92796126 -23.11091252 246.96529753 -23.11145304 245.97346216 C-23.1201314 230.43120515 -23.13588706 214.88896309 -23.15430559 199.34671491 C-23.17307642 183.37274466 -23.18413183 167.39878218 -23.18817699 151.42480135 C-23.19090722 141.58553992 -23.19949791 131.74632077 -23.21583293 121.90707237 C-23.22648871 115.13971722 -23.22958142 108.3723836 -23.22700275 101.6050207 C-23.22573468 97.71350652 -23.22753505 93.82206567 -23.23841095 89.93056488 C-23.28472811 72.53056433 -22.84667859 55.31766474 -21 38 C-20.34 38 -19.68 38 -19 38 C-19 35.69 -19 33.38 -19 31 C-18.34 31 -17.68 31 -17 31 C-17 29.02 -17 27.04 -17 25 C-16.34 25 -15.68 25 -15 25 C-15 23.68 -15 22.36 -15 21 C-14.34 21 -13.68 21 -13 21 C-13 19.68 -13 18.36 -13 17 C-12.34 17 -11.68 17 -11 17 C-10.67 15.02 -10.34 13.04 -10 11 C-9.34 11 -8.68 11 -8 11 C-8 10.01 -8 9.02 -8 8 C-7.34 8 -6.68 8 -6 8 C-6 6.68 -6 5.36 -6 4 C-5.38125 3.71125 -4.7625 3.4225 -4.125 3.125 C-1.86674235 2.06279958 -1.86674235 2.06279958 0 0 Z " fill="#C7C7C7" transform="translate(322,374)"/>
<path d="M0 0 C-0.88300781 0.54527344 -1.76601563 1.09054687 -2.67578125 1.65234375 C-11.1733807 6.96705895 -19.71481907 12.45610392 -26.67578125 19.7578125 C-28 21 -28 21 -30 21 C-30.24492187 21.56203125 -30.48984375 22.1240625 -30.7421875 22.703125 C-32.22926539 25.41865854 -34.04062782 27.46391438 -36.125 29.75 C-36.84945313 30.54921875 -37.57390625 31.3484375 -38.3203125 32.171875 C-38.87460937 32.77515625 -39.42890625 33.3784375 -40 34 C-40 30.79604584 -39.25664978 28.90600261 -38 26 C-37.01 26 -36.02 26 -35 26 C-35 24.68 -35 23.36 -35 22 C-34.34 22 -33.68 22 -33 22 C-33 21.34 -33 20.68 -33 20 C-32.34 20 -31.68 20 -31 20 C-31 19.34 -31 18.68 -31 18 C-30.34 18 -29.68 18 -29 18 C-29 17.01 -29 16.02 -29 15 C-28.34 15 -27.68 15 -27 15 C-27 14.34 -27 13.68 -27 13 C-23.59347128 9.79385533 -20.48599743 8.25190626 -16 7 C-16 6.34 -16 5.68 -16 5 C-15.34 5 -14.68 5 -14 5 C-14 4.34 -14 3.68 -14 3 C-12.68 3 -11.36 3 -10 3 C-10 2.34 -10 1.68 -10 1 C-8.71073008 0.63720544 -7.41846728 0.28503302 -6.125 -0.0625 C-5.40570313 -0.25972656 -4.68640625 -0.45695312 -3.9453125 -0.66015625 C-2 -1 -2 -1 0 0 Z " fill="#E0E0E0" transform="translate(366,337)"/>
<path d="M0 0 C0 3.66448426 -0.90580485 4.54568899 -3 7.5 C-6.4079775 12.6917865 -8.92025695 18.02365111 -11.3125 23.75 C-11.81813477 24.9555957 -11.81813477 24.9555957 -12.33398438 26.18554688 C-14.19677506 30.73527201 -15.74788673 35.24578311 -17 40 C-17.66 40 -18.32 40 -19 40 C-19.33 42.31 -19.66 44.62 -20 47 C-20.33 47 -20.66 47 -21 47 C-21 44.03 -21 41.06 -21 38 C-20.34 38 -19.68 38 -19 38 C-19 35.69 -19 33.38 -19 31 C-18.34 31 -17.68 31 -17 31 C-17 29.02 -17 27.04 -17 25 C-16.34 25 -15.68 25 -15 25 C-15 23.68 -15 22.36 -15 21 C-14.34 21 -13.68 21 -13 21 C-13 19.68 -13 18.36 -13 17 C-12.34 17 -11.68 17 -11 17 C-10.67 15.02 -10.34 13.04 -10 11 C-9.34 11 -8.68 11 -8 11 C-8 10.01 -8 9.02 -8 8 C-7.34 8 -6.68 8 -6 8 C-6 6.68 -6 5.36 -6 4 C-5.38125 3.71125 -4.7625 3.4225 -4.125 3.125 C-1.86674235 2.06279958 -1.86674235 2.06279958 0 0 Z " fill="#DDDCDD" transform="translate(322,374)"/>
<path d="M0 0 C0.91652344 0.01160156 1.83304687 0.02320313 2.77734375 0.03515625 C3.69644531 0.04417969 4.61554688 0.05320312 5.5625 0.0625 C6.27277344 0.07410156 6.98304688 0.08570313 7.71484375 0.09765625 C4.28460112 2.06624377 0.95511587 2.77667159 -2.91015625 3.53515625 C-8.8221029 4.74722899 -14.5476121 6.23361541 -20.28515625 8.09765625 C-20.28515625 8.75765625 -20.28515625 9.41765625 -20.28515625 10.09765625 C-26.57059152 13.53561876 -32.21978736 15.84412306 -39.28515625 17.09765625 C-38.28515625 14.09765625 -38.28515625 14.09765625 -35.703125 12.5625 C-34.63707031 12.05847656 -33.57101562 11.55445313 -32.47265625 11.03515625 C-31.41433594 10.52855469 -30.35601562 10.02195312 -29.265625 9.5 C-27.79029297 8.80583984 -27.79029297 8.80583984 -26.28515625 8.09765625 C-25.18880859 7.51564453 -25.18880859 7.51564453 -24.0703125 6.921875 C-21.7416583 5.84671956 -19.81686935 5.95700552 -17.28515625 6.09765625 C-17.28515625 5.43765625 -17.28515625 4.77765625 -17.28515625 4.09765625 C-15.30515625 4.09765625 -13.32515625 4.09765625 -11.28515625 4.09765625 C-11.28515625 3.43765625 -11.28515625 2.77765625 -11.28515625 2.09765625 C-9.234375 1.86979167 -7.18359375 1.64192708 -5.1328125 1.4140625 C-2.7139361 0.99983631 -2.5926424 0.11079668 0 0 Z " fill="#EFEFEF" transform="translate(399.28515625,320.90234375)"/>
<path d="M0 0 C0.66 0 1.32 0 2 0 C2 0.66 2 1.32 2 2 C1.01 1.67 0.02 1.34 -1 1 C-0.67 0.67 -0.34 0.34 0 0 Z M-3 3 C-1.79220994 5.85477649 -1.98878024 6.96898066 -3.0625 9.9375 C-5.34412991 13.54394727 -7.61343698 15.4412635 -11 18 C-11 16.35 -11 14.7 -11 13 C-10.34 13 -9.68 13 -9 13 C-9 12.34 -9 11.68 -9 11 C-8.34 11 -7.68 11 -7 11 C-7 10.01 -7 9.02 -7 8 C-6.34 8 -5.68 8 -5 8 C-4.34 6.35 -3.68 4.7 -3 3 Z " fill="#ECECEC" transform="translate(329,361)"/>
<path d="M0 0 C0 3.86624965 -1.34497154 5.46660609 -3.4375 8.6875 C-4.07558594 9.68136719 -4.71367187 10.67523438 -5.37109375 11.69921875 C-5.90863281 12.45847656 -6.44617188 13.21773438 -7 14 C-7.33 14 -7.66 14 -8 14 C-8 12.02 -8 10.04 -8 8 C-7.34 8 -6.68 8 -6 8 C-6 6.68 -6 5.36 -6 4 C-5.38125 3.71125 -4.7625 3.4225 -4.125 3.125 C-1.86674235 2.06279958 -1.86674235 2.06279958 0 0 Z " fill="#D2D2D2" transform="translate(322,374)"/>
<path d="M0 0 C0 4.13781054 -1.71509607 5.20919996 -4.5 8.1875 C-5.3353125 9.08855469 -6.170625 9.98960937 -7.03125 10.91796875 C-7.6809375 11.60503906 -8.330625 12.29210937 -9 13 C-9 9.66843858 -8.54335239 7.93971885 -7 5 C-4.5 3.3125 -4.5 3.3125 -2 2 C-1.34 1.34 -0.68 0.68 0 0 Z " fill="#CACACA" transform="translate(335,358)"/>
<path d="M0 0 C-1.78524649 1.19713017 -3.5784028 2.38247279 -5.375 3.5625 C-6.87160156 4.55443359 -6.87160156 4.55443359 -8.3984375 5.56640625 C-9.25695312 6.03949219 -10.11546875 6.51257813 -11 7 C-11.66 6.67 -12.32 6.34 -13 6 C-11.83592269 3.23531639 -10.92589237 1.39383561 -8.08984375 0.1875 C-2.5306913 -1.26534565 -2.5306913 -1.26534565 0 0 Z " fill="#CDCDCD" transform="translate(366,337)"/>
<path d="M0 0 C0.66 0.33 1.32 0.66 2 1 C-1.29356008 4.53752749 -4.69447685 6.84723842 -9 9 C-9 8.01 -9 7.02 -9 6 C-8.34 6 -7.68 6 -7 6 C-7 5.34 -7 4.68 -7 4 C-6.34 4 -5.68 4 -5 4 C-5 3.34 -5 2.68 -5 2 C-4.360625 1.855625 -3.72125 1.71125 -3.0625 1.5625 C-1.02454854 1.18992819 -1.02454854 1.18992819 0 0 Z " fill="#DEDEDE" transform="translate(340,353)"/>
<path d="M0 0 C0.33 0.99 0.66 1.98 1 3 C-0.65 4.65 -2.3 6.3 -4 8 C-4.33 6.68 -4.66 5.36 -5 4 C-4.34 4 -3.68 4 -3 4 C-3 3.34 -3 2.68 -3 2 C-2.01 1.34 -1.02 0.68 0 0 Z " fill="#F8F8F8" transform="translate(342,348)"/>
<path d="M0 0 C-0.33 0.66 -0.66 1.32 -1 2 C-3.06640625 2.6328125 -3.06640625 2.6328125 -5.5625 3.125 C-6.38878906 3.29257812 -7.21507812 3.46015625 -8.06640625 3.6328125 C-8.70449219 3.75398438 -9.34257812 3.87515625 -10 4 C-9 1 -9 1 -7.25 -0.25 C-4.47275102 -1.17574966 -2.78428335 -0.77341204 0 0 Z " fill="#E7E7E7" transform="translate(370,334)"/>
<path d="M0 0 C0.66 0 1.32 0 2 0 C1.21681311 3.91593446 -0.39179858 7.36406635 -2 11 C-2.33 11 -2.66 11 -3 11 C-3 9.35 -3 7.7 -3 6 C-2.34 6 -1.68 6 -1 6 C-0.67 4.02 -0.34 2.04 0 0 Z " fill="#F8F8F8" transform="translate(312,385)"/>
<path d="M0 0 C0.66 0 1.32 0 2 0 C2 0.66 2 1.32 2 2 C1.01 1.67 0.02 1.34 -1 1 C-0.67 0.67 -0.34 0.34 0 0 Z M-3 3 C-2.3125 4.8125 -2.3125 4.8125 -2 7 C-3.4375 8.75 -3.4375 8.75 -5 10 C-4.125 5.25 -4.125 5.25 -3 3 Z " fill="#F9F8F9" transform="translate(329,361)"/>
</svg>
